<svg xmlns="http://www.w3.org/2000/svg" viewBox="0 0 953.67 232.61"><defs><style>.cls-1{fill:#fff;}.cls-2{fill:#ffc50d;}</style></defs><title>dampAsset 27</title><g id="Layer_2" data-name="Layer 2"><g id="Layer_2-2" data-name="Layer 2"><path class="cls-1" d="M216.06,97.12A43.37,43.37,0,0,1,212,114.81a70.82,70.82,0,0,1-12.84,18.68,142.2,142.2,0,0,1-22.53,19.32,275.24,275.24,0,0,1-33.16,19.76q-10.41,5.27-22,10.62T98.33,193.25q-11.47,4.69-22.17,8.55t-19.4,6.42c-2.66.76-5.47,1.48-8.41,2.14s-5.76,1.24-8.42,1.71-5.13.83-7.41,1.07a55.69,55.69,0,0,1-5.57.36,9.45,9.45,0,0,1-5.06-1.07,8.08,8.08,0,0,1-2.57-2.64A10.93,10.93,0,0,1,18,206.37a13.43,13.43,0,0,0-1.14-3.43,7.19,7.19,0,0,0-2.28-2.64,7.77,7.77,0,0,0-4.49-1.06,7.48,7.48,0,0,1-5.42-1.93,12.63,12.63,0,0,1-3.07-4.71,21.74,21.74,0,0,1-1.35-6c-.2-2.14-.29-4.06-.29-5.77a57.25,57.25,0,0,1,2.35-15.48Q4.71,157,7.56,146.75q1.28-4.71,3.35-12.69t4.35-17.61q2.28-9.63,4.64-19.9t4.2-19.32q1.86-9.06,3-16.12a72.5,72.5,0,0,0,1.14-10.2,5.82,5.82,0,0,0-1.93-4.2C25,45.42,23.6,44.05,22,42.57a28.52,28.52,0,0,1-4.27-5.13,12.78,12.78,0,0,1-1.93-7.21,47.74,47.74,0,0,1,.36-5.49,13.61,13.61,0,0,1,2-5.7A13,13,0,0,1,23,14.62q3.21-1.78,8.92-1.78a35.55,35.55,0,0,1,6.49.57c2,.38,4.35.78,6.91,1.21s5.54.83,8.92,1.21a114.18,114.18,0,0,0,12.47.57q11.83,0,25,.79t25.74,2.35q12.63,1.58,23.68,3.85a108.15,108.15,0,0,1,18.75,5.42A95.44,95.44,0,0,1,179.7,40a110.24,110.24,0,0,1,18.11,16.41A86.15,86.15,0,0,1,211,76.09,48,48,0,0,1,216.06,97.12Zm-163,76.59a74.28,74.28,0,0,0,16.69-2.21,188.38,188.38,0,0,0,19.82-5.92Q100,161.88,110.81,157t20.82-10.41q10-5.49,18.69-11.2a142.8,142.8,0,0,0,14.83-11,50.17,50.17,0,0,0,6.06-6.27,55,55,0,0,0,4.42-6.28,38,38,0,0,0,2.71-5.35,10.86,10.86,0,0,0,.93-3.63c0-1.24,0-2.71-.07-4.42s-.15-3.45-.29-5.21-.35-3.47-.64-5.13a19.63,19.63,0,0,0-1.14-4.21,120.23,120.23,0,0,0-7.56-11.62,42,42,0,0,0-9.84-9.63A56.74,56.74,0,0,0,147,56.55q-8.13-2.92-17.12-5.21t-17.47-3.63a91,91,0,0,0-13.9-1.36c-3.24,0-6.59,0-10.06.07s-6.7.22-9.69.5A52.52,52.52,0,0,0,71,48.2a8.58,8.58,0,0,0-4.63,2.43,18.87,18.87,0,0,0-2,4Q63.18,57.49,62,61.25t-2.28,7.92q-1.15,4.14-2.14,8-1.86,6.7-3.85,14.9t-4.14,17q-2.15,8.85-4.21,18t-3.85,17.76q-1.78,8.63-3.13,16.54t-2.07,14.19q3.42-.28,8.27-1.07A54,54,0,0,1,53.05,173.71Z"/><path class="cls-2" d="M275.68,169.57c-2.1,0-4.52.05-7.28.14s-4.8.15-6.13.15q-.57,0-2.64,3.78T253,185.54q-3.57,6.42-7.2,12.63a101.38,101.38,0,0,1-7.49,11.12,45.16,45.16,0,0,1-7.84,8,13.46,13.46,0,0,1-8.27,3.06,13,13,0,0,1-5.64-1.5,23.66,23.66,0,0,1-5.7-3.92,22.89,22.89,0,0,1-4.42-5.49,12.2,12.2,0,0,1-1.79-6.2c0-2,.81-4.68,2.43-8.06a114.9,114.9,0,0,1,6.7-11.77q4.28-6.69,10.06-14.9T236.17,151q6.14-8.55,12.77-17.9t13.47-19.61q5.28-8.13,11.77-19t13.55-22.6q7-11.7,14.33-23T316,28.52a111.15,111.15,0,0,1,12.4-14.47q5.78-5.49,9.92-5.49a32.1,32.1,0,0,1,8.77,1.07A20.62,20.62,0,0,1,354.69,14a4.54,4.54,0,0,1,1.64,3.21c.14,1.37.21,3.11.21,5.2A21.44,21.44,0,0,1,356,27a34.88,34.88,0,0,1-1.21,4.28q1.14,3.15,2.85,7.21l3.57,8.48q1.85,4.42,3.71,8.77t3.28,7.92L398.9,138.2c1.42,3.61,3.14,7.6,5.13,12s4.07,8.63,6.21,12.77,4.25,7.94,6.34,11.41a63.64,63.64,0,0,0,5.42,7.91q3.86,4.43,7.49,8.06t6.49,6.85a33.68,33.68,0,0,1,4.56,6.41,14.22,14.22,0,0,1,1.71,6.78,17.23,17.23,0,0,1-1.49,7.42,13.75,13.75,0,0,1-4.14,5.13,18.47,18.47,0,0,1-6.06,3,25.7,25.7,0,0,1-7.27,1,22.61,22.61,0,0,1-13.2-4.35,57.21,57.21,0,0,1-11.48-10.84,110.68,110.68,0,0,1-9.7-14q-4.41-7.56-8-13.84c-1.14-2.09-2.36-4.39-3.64-6.91s-2.47-5-3.56-7.49-2.07-4.76-2.93-6.85a39.94,39.94,0,0,1-1.71-4.85,1.92,1.92,0,0,0-1.21-1.21,4.84,4.84,0,0,0-1.64-.35,43.52,43.52,0,0,0-5.85.57c-2.57.38-5.44.88-8.63,1.49s-6.56,1.34-10.12,2.14-7.06,1.6-10.49,2.36l-9.69,2.13c-3,.67-5.61,1.19-7.7,1.57-1.05.2-2.57.41-4.57.65s-4.23.45-6.7.64-5.06.4-7.77.64-5.3.43-7.78.57-4.7.28-6.7.43S276.72,169.57,275.68,169.57Zm50.77-36.65q2.85-.72,6.56-1.36t7.7-1.35l8-1.43,7.13-1.28q-2.71-6.56-5.49-14.33T345,97.55q-2.57-7.85-4.85-15.12t-4.06-13c-1.2-3.8-2.14-6.89-2.86-9.27s-1.16-3.61-1.35-3.7q-2.28,4.27-5.28,9.69t-6.06,11.06q-3.07,5.63-6.13,11t-5.49,9.55q-2.43,4.14-5.78,9.27t-6.92,10.56q-3.56,5.41-7.06,10.77t-6.06,9.91q8.13,0,13.77-.36t10.34-1.07q4.69-.71,9.12-1.71Z"/><path class="cls-1" d="M687.27,162.73q0,5.7.43,10.19c.28,3,.57,5.76.85,8.27s.57,4.92.86,7.21a58.53,58.53,0,0,1,.42,7.13,43.67,43.67,0,0,1-1.14,9.41,56.87,56.87,0,0,1-3,9.56,7.12,7.12,0,0,1-2.21,2.56,17.55,17.55,0,0,1-4,2.28,27.54,27.54,0,0,1-10.63,2.14,17.21,17.21,0,0,1-8.27-1.85,14.93,14.93,0,0,1-5.56-5.21,23,23,0,0,1-3.07-8A52.76,52.76,0,0,1,651,196.1q0-8.28.86-18.9t2.14-22q1.28-11.34,2.85-22.46t2.92-20.4q1.37-9.27,2.43-15.69t1.35-8.27c.1-.47.31-1.61.65-3.42s.76-3.92,1.28-6.35,1.09-5,1.71-7.77,1.19-5.37,1.71-7.84,1-4.64,1.43-6.49.69-3.12.78-3.78q-.42.57-2.78,3.56t-5.78,7.49q-3.42,4.5-7.77,10.06t-8.77,11.33l-8.63,11.27q-4.2,5.49-7.63,9.91l-5.63,7.28c-1.48,1.9-2.31,3-2.5,3.28l-5.84,7.63q-3.57,4.64-7.92,9.76t-9.27,10.27a104.08,104.08,0,0,1-10,9.2,60,60,0,0,1-10.06,6.63,20.68,20.68,0,0,1-9.41,2.57,13.82,13.82,0,0,1-8.41-2.85q-3.85-2.85-7.56-9.41a111.57,111.57,0,0,1-7.49-17.19q-3.78-10.62-8.2-26.17-1.86-6.7-3.14-12.12t-2.35-10c-.71-3-1.48-5.86-2.28-8.48A68.52,68.52,0,0,0,526.82,69q-.29,1.27-1.21,5.27t-2.14,9.49q-1.22,5.49-2.64,11.76t-2.7,12q-1.29,5.79-2.36,10.34c-.71,3-1.26,5.23-1.64,6.56q-3,11.13-6,22.68t-5.56,22.46Q500,180.56,498,190.18t-3,16.9a7.31,7.31,0,0,1-2.42,4.06,28.83,28.83,0,0,1-4.92,3.78,39.75,39.75,0,0,1-5.57,2.86,12.44,12.44,0,0,1-4.35,1.14,13.9,13.9,0,0,1-7-1.86,22.58,22.58,0,0,1-5.78-4.63,23,23,0,0,1-3.92-6,15,15,0,0,1-1.43-6.06c.1-1.24.31-3.09.64-5.57s.79-5.27,1.36-8.41,1.28-6.51,2.14-10.13,1.85-7.17,3-10.69q5.43-17.27,9.2-29.88t6.78-23.32q3-10.69,5.7-21t6.13-22.82a120.24,120.24,0,0,0,2.78-12.69q1.22-7.14,2.21-14.12t1.57-13q.57-6,.72-9.27a12.6,12.6,0,0,1,2.35-7.28,17.51,17.51,0,0,1,5.7-4.92,28.55,28.55,0,0,1,7.92-2.85,43.51,43.51,0,0,1,8.84-.92,10.36,10.36,0,0,1,6.92,2.78,33.39,33.39,0,0,1,5.7,6.41A47.25,47.25,0,0,1,543.44,20a33.52,33.52,0,0,1,2.07,5.49l-.15-.29q.72,2.15,2.29,7.13t3.78,11.77q2.21,6.78,4.77,14.76t5.28,16.19q2.71,8.2,5.28,16.11t4.77,14.41q2.22,6.48,3.78,11.12t2.29,6.21q3.14-3.15,8.91-9.77T599,98.26Q605.7,90,612.68,81.15t12.55-16.26q4.85-6.42,10.48-13.69t11.41-14.55q5.77-7.27,11.48-13.83t10.7-11.7A84.07,84.07,0,0,1,678.21,3c2.62-2,4.73-3,6.35-3a21.09,21.09,0,0,1,7.7,1.64,35.27,35.27,0,0,1,7.63,4.14,33.55,33.55,0,0,1,5.85,5.2c1.57,1.81,2.35,3.42,2.35,4.85,0,.57-.21,2.24-.64,5s-1,6.16-1.57,10.2-1.36,8.48-2.21,13.33S702,54,701.1,58.76q-.86,5.28-2.49,16T695,99.4q-1.92,14-3.92,30.31T687.27,162.73Z"/><path class="cls-1" d="M953.67,41.5a25.31,25.31,0,0,1-1.14,6.35q-1.14,4.07-2.92,8.7t-3.92,9a55.53,55.53,0,0,1-4.14,7.2,87.91,87.91,0,0,1-13.33,14.41,194.61,194.61,0,0,1-20,15.4q-10.7,7.27-22.11,14t-22.53,12.33q-13.41,6.86-27.74,12.91t-28.16,10.48v6.85c0,1.24.07,3.23.21,6s.33,5.94.57,9.56.47,7.46.71,11.55.48,8.08.72,12,.42,7.51.57,10.84.21,6,.21,8.13q0,7.26-4.63,11.33t-12.34,4.07q-20.53,0-20.54-69.46,0-6.12.36-12.4t1.14-13.48q.78-7.2,1.93-15.48t2.7-18.54q1.29-8.55,2.64-16.4T785,71.52Q786.67,64,789,56.76a152.08,152.08,0,0,1,5.64-14.69q-4.57,1.29-9.34,2.93t-10.06,3.35a22,22,0,0,1-3.14,1.14,14.48,14.48,0,0,1-12.33-2.57,9.84,9.84,0,0,1-3.5-7.84,20.58,20.58,0,0,1,2.43-10.2,22.4,22.4,0,0,1,7.77-7.77,58.19,58.19,0,0,1,13.69-6.06A201.33,201.33,0,0,1,800.5,10q6.86-1.43,14.84-2.78t16.11-2.42Q839.58,3.7,847.28,3c5.14-.48,9.79-.72,14-.72q7.56,0,14.62.14t13.9.72q6.86.57,13.62,1.57t13.77,2.71q15.68,3.84,25.1,11.41Q953.67,27.67,953.67,41.5ZM872.24,30.38a245.52,245.52,0,0,0-24.6,1.35q-13.33,1.36-26.31,3.5,4.27,4.27,4.28,11.55a24.42,24.42,0,0,1-1.07,4.49c-.72,2.43-1.5,5.06-2.36,7.92s-1.69,5.51-2.49,8-1.36,4-1.64,4.57a34.61,34.61,0,0,0-1.36,4.63c-.43,1.86-.85,3.88-1.28,6.06s-.83,4.45-1.21,6.78-.77,4.58-1.14,6.77q-.87,4.42-1.36,7.77t-.78,6c-.2,1.76-.36,3.45-.5,5.07s-.27,3.28-.36,5q4.71-2,10.7-4.49T833,110.17q6.21-2.64,12.12-5.28c3.95-1.75,7.44-3.35,10.48-4.77q2.43-1.29,5.5-2.86T867.32,94q3.21-1.71,6.49-3.49c2.19-1.19,4.18-2.35,6-3.49A158.81,158.81,0,0,0,894,77.23a118.6,118.6,0,0,0,13.48-12,72.49,72.49,0,0,0,10-13.05q3.93-6.63,3.92-12.48,0-3-7.27-4.85a117,117,0,0,0-21.89-3.64Q881.08,30.38,872.24,30.38Z"/></g></g></svg>