<svg xmlns="http://www.w3.org/2000/svg" xmlns:xlink="http://www.w3.org/1999/xlink" viewBox="0 0 299.46 300.67"><defs><style>.cls-1{fill:none;}.cls-2{clip-path:url(#clip-path);}.cls-3{fill:url(#linear-gradient);}.cls-4{fill:url(#radial-gradient);}.cls-5{fill:url(#radial-gradient-2);}.cls-6{fill:#fed401;}</style><clipPath id="clip-path" transform="translate(-0.07 -0.56)"><rect class="cls-1" width="300" height="302.08"/></clipPath><linearGradient id="linear-gradient" x1="135.15" y1="50.54" x2="292.59" y2="255.78" gradientUnits="userSpaceOnUse"><stop offset="0.11" stop-color="#274a8c"/><stop offset="0.39" stop-color="#203d73"/><stop offset="0.78" stop-color="#172d54"/><stop offset="1" stop-color="#142749"/></linearGradient><radialGradient id="radial-gradient" cx="191.48" cy="108.55" fx="166.2636690271743" fy="101.21276292560451" r="61.03" gradientUnits="userSpaceOnUse"><stop offset="0" stop-color="#ffc50d"/><stop offset="0.23" stop-color="#f8c00d"/><stop offset="0.56" stop-color="#e5b10c"/><stop offset="0.96" stop-color="#c6980a"/><stop offset="1" stop-color="#c2950a"/></radialGradient><radialGradient id="radial-gradient-2" cx="35.4" cy="206.09" fx="35.40256711673646" fy="206.08680971553986" r="154.69" xlink:href="#radial-gradient"/></defs><title>DeptAsset 1</title><g id="Layer_2" data-name="Layer 2"><g id="Layer_1-2" data-name="Layer 1"><g class="cls-2"><path class="cls-3" d="M298.39,6.63a5.64,5.64,0,0,0-4.92-4.93A155.41,155.41,0,0,0,164.68,46L126.8,83.9l-54.64,7a6.47,6.47,0,0,0-3.32,1.61L16.1,145.27A5.65,5.65,0,0,0,19,154.83l39.87,7.39,7.86,7.86-16.67,9a5.66,5.66,0,0,0-1.32,9L112,251.33a5.83,5.83,0,0,0,4,1.7,2.8,2.8,0,0,0,.86-.09A5.62,5.62,0,0,0,121,250l9-16.67,7.86,7.86,7.39,39.87a5.54,5.54,0,0,0,3.88,4.36,5.45,5.45,0,0,0,5.68-1.42l52.65-52.75a6.09,6.09,0,0,0,1.61-3.31l7-54.64L254,135.42a157,157,0,0,0,37-59.28,154.65,154.65,0,0,0,7.39-69.51ZM59.85,150.85l-28-5.21L75.47,102l38.17-5Zm54.83,87L62.22,185.42l13-7,46.5,46.5Zm83.52-13.26-43.65,43.66-5.21-28,53.79-53.79ZM246,127.46,143.18,230.3,69.79,156.91,172.63,54.07a144.41,144.41,0,0,1,53.22-33.71,68,68,0,0,0,18.66,35.13,67.76,67.76,0,0,0,35.13,18.66A142.59,142.59,0,0,1,246,127.46Zm37.22-64.2a56.76,56.76,0,0,1-46.4-46.4,143.41,143.41,0,0,1,50.75-4.36,148,148,0,0,1-4.35,50.76Z" transform="translate(-0.07 -0.56)"/></g><path class="cls-4" d="M167.14,84.19a34.45,34.45,0,1,0,48.67,0,34.51,34.51,0,0,0-48.67,0Zm40.72,40.72a23.1,23.1,0,1,1-16.29-39.4,23,23,0,0,1,16.29,39.4Z" transform="translate(-0.07 -0.56)"/><path class="cls-5" d="M74,227.18a5.77,5.77,0,0,0-8,0L17.23,276a5.79,5.79,0,0,0,0,8.05,5.64,5.64,0,0,0,4,1.7,5.48,5.48,0,0,0,4-1.7L74,235.23a5.61,5.61,0,0,0,0-8Z" transform="translate(-0.07 -0.56)"/><path class="cls-5" d="M81.44,242.71l-22,22a5.77,5.77,0,0,0,0,8.05,5.64,5.64,0,0,0,4,1.7,5.45,5.45,0,0,0,4-1.7l22-22a5.77,5.77,0,0,0,0-8,5.65,5.65,0,0,0-8,0Z" transform="translate(-0.07 -0.56)"/><path class="cls-5" d="M51.8,274.72a5.81,5.81,0,0,0-5.4,3.78,5.6,5.6,0,0,0,1.8,6.35,5.66,5.66,0,0,0,8.71-6.63,5.36,5.36,0,0,0-5.11-3.5Z" transform="translate(-0.07 -0.56)"/><path class="cls-6" d="M57.1,278.22c.1.38-.19-.28,0,0Z" transform="translate(-0.07 -0.56)"/><g class="cls-2"><path class="cls-5" d="M35.8,288.45l-3,3a5.77,5.77,0,0,0,0,8,5.6,5.6,0,0,0,4,1.7,5.48,5.48,0,0,0,4-1.7l3-3a5.77,5.77,0,0,0,0-8.05,5.65,5.65,0,0,0-8,0Z" transform="translate(-0.07 -0.56)"/></g><g class="cls-2"><path class="cls-5" d="M31.63,238.45a5.77,5.77,0,0,0-8,0l-21.88,22a5.79,5.79,0,0,0,0,8.05,5.64,5.64,0,0,0,4,1.7,5.48,5.48,0,0,0,4-1.7l22-22a5.61,5.61,0,0,0,0-8.05Z" transform="translate(-0.07 -0.56)"/></g><path class="cls-5" d="M40.72,236.27a5.65,5.65,0,1,0-5.49-9.38,5.85,5.85,0,0,0-.67,7.11h0a6,6,0,0,0,6.16,2.27Z" transform="translate(-0.07 -0.56)"/><path class="cls-5" d="M55.4,222.73l3-3a5.69,5.69,0,0,0-8-8l-3,3a5.77,5.77,0,0,0,0,8,5.63,5.63,0,0,0,4,1.7,5.9,5.9,0,0,0,4.07-1.7Z" transform="translate(-0.07 -0.56)"/></g></g></svg>