<svg xmlns="http://www.w3.org/2000/svg" xmlns:xlink="http://www.w3.org/1999/xlink" viewBox="0 0 300 340.19"><defs><style>.cls-1{fill:url(#radial-gradient);}.cls-2{fill:url(#linear-gradient);}.cls-3{fill:url(#radial-gradient-2);}.cls-4{fill:url(#linear-gradient-2);}.cls-5{fill:url(#radial-gradient-3);}.cls-6{fill:url(#linear-gradient-3);}.cls-7{fill:url(#radial-gradient-4);}.cls-8{fill:url(#linear-gradient-4);}.cls-9{fill:url(#radial-gradient-5);}</style><radialGradient id="radial-gradient" cx="301.33" cy="231.56" fx="287.61000237611756" fy="221.78038518311578" r="43.39" gradientTransform="translate(34.45 39.06) scale(0.77 0.77)" gradientUnits="userSpaceOnUse"><stop offset="0" stop-color="#274a8c"/><stop offset="0.01" stop-color="#27498b"/><stop offset="0.38" stop-color="#203d72"/><stop offset="0.72" stop-color="#1b3663"/><stop offset="1" stop-color="#1a335e"/></radialGradient><linearGradient id="linear-gradient" x1="202.96" y1="188.17" x2="188.6" y2="214.53" gradientUnits="userSpaceOnUse"><stop offset="0" stop-color="#ffc50d"/><stop offset="0.08" stop-color="#f3bb0c"/><stop offset="0.32" stop-color="#d6a50b"/><stop offset="0.55" stop-color="#c1940a"/><stop offset="0.78" stop-color="#b48a09"/><stop offset="1" stop-color="#b08709"/></linearGradient><radialGradient id="radial-gradient-2" cx="-5.61" cy="231.56" fx="-20.92483240165567" fy="219.88600346165066" r="39.1" xlink:href="#radial-gradient"/><linearGradient id="linear-gradient-2" x1="85.95" y1="183.86" x2="100.38" y2="205.63" gradientUnits="userSpaceOnUse"><stop offset="0" stop-color="#ffc50d"/><stop offset="0.08" stop-color="#f3bc0c"/><stop offset="0.35" stop-color="#cc9e0b"/><stop offset="0.61" stop-color="#b08809"/><stop offset="0.83" stop-color="#9f7b08"/><stop offset="1" stop-color="#997608"/></linearGradient><radialGradient id="radial-gradient-3" cx="135.36" cy="190.47" fx="98.66704213149461" fy="165.42573543499955" r="118.81" xlink:href="#radial-gradient"/><linearGradient id="linear-gradient-3" x1="101.88" y1="247.82" x2="126.79" y2="262.2" gradientUnits="userSpaceOnUse"><stop offset="0.27" stop-color="#ffc50d"/><stop offset="0.42" stop-color="#e7b20c"/><stop offset="0.66" stop-color="#c99b0a"/><stop offset="0.86" stop-color="#b78c09"/><stop offset="1" stop-color="#b08709"/></linearGradient><radialGradient id="radial-gradient-4" cx="83.69" cy="333.19" fx="64.1647808523731" fy="316.6290247799862" r="57.7" xlink:href="#radial-gradient"/><linearGradient id="linear-gradient-4" x1="114.2" y1="115.8" x2="146.65" y2="82.96" gradientUnits="userSpaceOnUse"><stop offset="0" stop-color="#ffc50d"/><stop offset="0.1" stop-color="#f7bf0d"/><stop offset="0.38" stop-color="#e4b00c"/><stop offset="0.67" stop-color="#daa80b"/><stop offset="1" stop-color="#d6a50b"/></linearGradient><radialGradient id="radial-gradient-5" cx="135.36" cy="0.97" fx="113.14749121891816" fy="-21.09161714249248" r="65.95" xlink:href="#radial-gradient"/></defs><title>DeptAsset 3</title><g id="Layer_2" data-name="Layer 2"><g id="Layer_1-2" data-name="Layer 1"><circle class="cls-1" cx="266.58" cy="217.45" r="33.42"/><path class="cls-2" d="M244,211.85c-.69,2.72-3.1,6.17-5.66,5.52L151.46,198.7c-2.55-.65-3.09-7.24-2.17-10.84s4.1-7.49,6.65-6.84l85.69,23.29C244.19,205,244.73,208.89,244,211.85Z"/><circle class="cls-3" cx="30.12" cy="217.45" r="30.12"/><path class="cls-4" d="M49.14,211.85c.69,2.72,3.1,6.17,5.65,5.52l86.86-18.67c2.56-.65,3.09-7.24,2.18-10.84s-4.1-7.49-6.66-6.84L51.48,204.31C48.93,205,48.39,208.89,49.14,211.85Z"/><circle class="cls-5" cx="138.72" cy="185.79" r="60.31"/><path class="cls-6" d="M100.08,291.9c-2.6-1-7.44-4.73-6.66-6.71l24.63-65.33c.79-2,5.27-4,11.26-1.35,4.7,2.06,6.47,6.12,5.68,8.1L109.58,292C108.8,294,102.93,293,100.08,291.9Z"/><circle class="cls-7" cx="98.92" cy="295.74" r="44.45"/><path class="cls-8" d="M139,140.74c-2.81,0-6.74-1.49-6.74-4.12L129,47.83c0-2.64,6.26-4.77,10-4.77s8.26,2.13,8.26,4.77l-1.52,88.79C145.69,139.25,142,140.74,139,140.74Z"/><circle class="cls-9" cx="138.72" cy="39.81" r="39.81"/></g></g></svg>