<svg xmlns="http://www.w3.org/2000/svg" xmlns:xlink="http://www.w3.org/1999/xlink" viewBox="0 0 300 300"><defs><style>.cls-1{fill:#89b3f7;opacity:0.28;}.cls-2{fill:#24496d;}.cls-3{fill:#2a5087;}.cls-4{fill:url(#linear-gradient);}.cls-5{fill:url(#linear-gradient-3);}.cls-6{fill:url(#linear-gradient-4);}.cls-7{fill:url(#linear-gradient-5);}.cls-8{fill:url(#linear-gradient-6);}.cls-9{fill:url(#linear-gradient-7);}.cls-10{fill:url(#linear-gradient-8);}.cls-11{fill:url(#linear-gradient-9);}.cls-12{fill:url(#linear-gradient-10);}.cls-13{fill:url(#linear-gradient-11);}.cls-14{fill:url(#linear-gradient-12);}.cls-15{fill:url(#linear-gradient-13);}.cls-16{fill:url(#linear-gradient-14);}.cls-17{fill:url(#linear-gradient-15);}.cls-18{fill:url(#linear-gradient-16);}.cls-19{fill:url(#linear-gradient-17);}.cls-20{fill:url(#linear-gradient-18);}.cls-21{fill:url(#linear-gradient-19);}.cls-22{fill:url(#linear-gradient-21);}.cls-23{fill:url(#linear-gradient-23);}.cls-24{fill:url(#linear-gradient-24);}.cls-25{fill:url(#linear-gradient-25);}.cls-26{fill:url(#linear-gradient-26);}.cls-27{fill:url(#linear-gradient-27);}.cls-28{fill:url(#linear-gradient-28);}.cls-29{fill:url(#linear-gradient-29);}.cls-30{fill:url(#linear-gradient-30);}.cls-31{fill:url(#linear-gradient-31);}.cls-32{fill:url(#linear-gradient-32);}.cls-33{fill:url(#linear-gradient-33);}.cls-34{fill:url(#linear-gradient-34);}.cls-35{fill:url(#linear-gradient-35);}.cls-36{fill:url(#linear-gradient-36);}.cls-37{fill:url(#linear-gradient-37);}.cls-38{fill:url(#linear-gradient-38);}.cls-39{fill:url(#linear-gradient-39);}.cls-40{fill:url(#linear-gradient-40);}.cls-41{fill:url(#linear-gradient-41);}.cls-42{fill:url(#linear-gradient-42);}.cls-43{fill:url(#linear-gradient-43);}.cls-44{fill:url(#linear-gradient-44);}.cls-45{fill:url(#linear-gradient-45);}.cls-46{fill:url(#linear-gradient-46);}.cls-47{fill:url(#linear-gradient-47);}</style><linearGradient id="linear-gradient" x1="198.44" y1="36.74" x2="198.44" y2="67.71" gradientUnits="userSpaceOnUse"><stop offset="0" stop-color="#274a8c"/><stop offset="0.27" stop-color="#254786"/><stop offset="0.61" stop-color="#213f76"/><stop offset="1" stop-color="#19315c"/><stop offset="1" stop-color="#19315c"/></linearGradient><linearGradient id="linear-gradient-3" x1="182.03" y1="4.95" x2="182.03" y2="67.71" xlink:href="#linear-gradient"/><linearGradient id="linear-gradient-4" x1="176.56" y1="4.95" x2="176.56" y2="67.71" xlink:href="#linear-gradient"/><linearGradient id="linear-gradient-5" x1="167.07" y1="31.66" x2="167.07" y2="67.71" xlink:href="#linear-gradient"/><linearGradient id="linear-gradient-6" x1="160.36" y1="31.66" x2="160.36" y2="67.71" xlink:href="#linear-gradient"/><linearGradient id="linear-gradient-7" x1="135.69" y1="19.54" x2="135.69" y2="67.71" xlink:href="#linear-gradient"/><linearGradient id="linear-gradient-8" x1="135.69" y1="19.54" x2="135.69" y2="67.71" xlink:href="#linear-gradient"/><linearGradient id="linear-gradient-9" x1="114.04" y1="32.61" x2="114.04" y2="67.71" xlink:href="#linear-gradient"/><linearGradient id="linear-gradient-10" x1="114.04" y1="32.61" x2="114.04" y2="67.71" xlink:href="#linear-gradient"/><linearGradient id="linear-gradient-11" x1="97.89" y1="0" x2="97.89" y2="67.71" xlink:href="#linear-gradient"/><linearGradient id="linear-gradient-12" x1="97.89" y1="0" x2="97.89" y2="67.71" xlink:href="#linear-gradient"/><linearGradient id="linear-gradient-13" x1="97.89" y1="263.26" x2="97.89" y2="232.29" xlink:href="#linear-gradient"/><linearGradient id="linear-gradient-14" x1="97.89" y1="263.26" x2="97.89" y2="232.29" xlink:href="#linear-gradient"/><linearGradient id="linear-gradient-15" x1="114.3" y1="295.05" x2="114.3" y2="232.29" xlink:href="#linear-gradient"/><linearGradient id="linear-gradient-16" x1="119.77" y1="295.05" x2="119.77" y2="232.29" xlink:href="#linear-gradient"/><linearGradient id="linear-gradient-17" x1="129.26" y1="268.34" x2="129.26" y2="232.29" xlink:href="#linear-gradient"/><linearGradient id="linear-gradient-18" x1="135.97" y1="268.34" x2="135.97" y2="232.29" xlink:href="#linear-gradient"/><linearGradient id="linear-gradient-19" x1="160.64" y1="280.46" x2="160.64" y2="232.29" xlink:href="#linear-gradient"/><linearGradient id="linear-gradient-21" x1="182.29" y1="267.39" x2="182.29" y2="232.29" xlink:href="#linear-gradient"/><linearGradient id="linear-gradient-23" x1="198.44" y1="300" x2="198.44" y2="232.29" xlink:href="#linear-gradient"/><linearGradient id="linear-gradient-24" x1="198.44" y1="300" x2="198.44" y2="232.29" xlink:href="#linear-gradient"/><linearGradient id="linear-gradient-25" x1="263.26" y1="200.28" x2="232.29" y2="200.28" xlink:href="#linear-gradient"/><linearGradient id="linear-gradient-26" x1="263.26" y1="200.28" x2="232.29" y2="200.28" xlink:href="#linear-gradient"/><linearGradient id="linear-gradient-27" x1="295.05" y1="183.86" x2="232.29" y2="183.86" xlink:href="#linear-gradient"/><linearGradient id="linear-gradient-28" x1="295.05" y1="178.39" x2="232.29" y2="178.39" xlink:href="#linear-gradient"/><linearGradient id="linear-gradient-29" x1="268.34" y1="168.9" x2="232.29" y2="168.9" xlink:href="#linear-gradient"/><linearGradient id="linear-gradient-30" x1="268.34" y1="162.2" x2="232.29" y2="162.2" xlink:href="#linear-gradient"/><linearGradient id="linear-gradient-31" x1="280.46" y1="137.52" x2="232.29" y2="137.52" xlink:href="#linear-gradient"/><linearGradient id="linear-gradient-32" x1="280.46" y1="137.52" x2="232.29" y2="137.52" xlink:href="#linear-gradient"/><linearGradient id="linear-gradient-33" x1="267.39" y1="115.87" x2="232.29" y2="115.87" xlink:href="#linear-gradient"/><linearGradient id="linear-gradient-34" x1="267.39" y1="115.87" x2="232.29" y2="115.87" xlink:href="#linear-gradient"/><linearGradient id="linear-gradient-35" x1="300" y1="99.72" x2="232.29" y2="99.72" xlink:href="#linear-gradient"/><linearGradient id="linear-gradient-36" x1="300" y1="99.72" x2="232.29" y2="99.72" xlink:href="#linear-gradient"/><linearGradient id="linear-gradient-37" x1="36.74" y1="99.72" x2="67.71" y2="99.72" xlink:href="#linear-gradient"/><linearGradient id="linear-gradient-38" x1="36.74" y1="99.72" x2="67.71" y2="99.72" xlink:href="#linear-gradient"/><linearGradient id="linear-gradient-39" x1="4.95" y1="116.14" x2="67.71" y2="116.14" xlink:href="#linear-gradient"/><linearGradient id="linear-gradient-40" x1="4.95" y1="121.61" x2="67.71" y2="121.61" xlink:href="#linear-gradient"/><linearGradient id="linear-gradient-41" x1="31.66" y1="131.1" x2="67.71" y2="131.1" xlink:href="#linear-gradient"/><linearGradient id="linear-gradient-42" x1="31.66" y1="137.8" x2="67.71" y2="137.8" xlink:href="#linear-gradient"/><linearGradient id="linear-gradient-43" x1="19.54" y1="162.48" x2="67.71" y2="162.48" xlink:href="#linear-gradient"/><linearGradient id="linear-gradient-44" x1="19.54" y1="162.48" x2="67.71" y2="162.48" xlink:href="#linear-gradient"/><linearGradient id="linear-gradient-45" x1="32.61" y1="184.13" x2="67.71" y2="184.13" xlink:href="#linear-gradient"/><linearGradient id="linear-gradient-46" x1="32.61" y1="184.13" x2="67.71" y2="184.13" xlink:href="#linear-gradient"/><linearGradient id="linear-gradient-47" x1="0" y1="200.28" x2="67.71" y2="200.28" xlink:href="#linear-gradient"/></defs><title>DeptAsset 7</title><g id="Layer_2" data-name="Layer 2"><g id="Layer_1-2" data-name="Layer 1"><path class="cls-1" d="M211.66,71.48a16.87,16.87,0,0,1,16.86,16.86V211.66a16.87,16.87,0,0,1-16.86,16.86H88.34a16.87,16.87,0,0,1-16.86-16.86V88.34A16.87,16.87,0,0,1,88.34,71.48H211.66"/><path class="cls-2" d="M202.84,71.48a25.71,25.71,0,0,1,25.68,25.68V202.84a25.71,25.71,0,0,1-25.68,25.68H97.16a25.71,25.71,0,0,1-25.68-25.68V97.16A25.71,25.71,0,0,1,97.16,71.48H202.84m0-3.77H97.16A29.44,29.44,0,0,0,67.71,97.16V202.84a29.44,29.44,0,0,0,29.45,29.45H202.84a29.44,29.44,0,0,0,29.45-29.45V97.16a29.44,29.44,0,0,0-29.45-29.45Z"/><path class="cls-3" d="M193.56,94.52a11.94,11.94,0,0,1,11.92,11.92v87.12a11.94,11.94,0,0,1-11.92,11.92H106.44a11.94,11.94,0,0,1-11.92-11.92V106.44a11.94,11.94,0,0,1,11.92-11.92h87.12m0-3.77H106.44a15.68,15.68,0,0,0-15.69,15.69v87.12a15.68,15.68,0,0,0,15.69,15.69h87.12a15.68,15.68,0,0,0,15.69-15.69V106.44a15.68,15.68,0,0,0-15.69-15.69Z"/><rect class="cls-4" x="197.09" y="40.5" width="2.69" height="27.21"/><circle class="cls-4" cx="198.44" cy="40.69" r="3.95"/><polygon class="cls-5" points="188.85 67.71 186.15 67.71 186.15 43.29 175.21 32.35 175.21 8.71 177.91 8.71 177.91 31.23 188.85 42.17 188.85 67.71"/><circle class="cls-6" cx="176.56" cy="8.91" r="3.95"/><polygon class="cls-7" points="174.86 67.71 172.17 67.71 172.17 49.12 159.27 36.22 161.18 34.32 174.86 48 174.86 67.71"/><circle class="cls-8" cx="160.36" cy="35.41" r="3.95"/><rect class="cls-9" x="134.34" y="23.3" width="2.69" height="44.41"/><circle class="cls-10" cx="135.69" cy="23.49" r="3.95"/><rect class="cls-11" x="112.69" y="36.37" width="2.69" height="31.34"/><circle class="cls-12" cx="114.04" cy="36.57" r="3.95"/><rect class="cls-13" x="96.54" y="3.75" width="2.69" height="63.95"/><path class="cls-14" d="M93.94,4a4,4,0,1,1,4,4A4,4,0,0,1,93.94,4Z"/><rect class="cls-15" x="96.54" y="232.29" width="2.69" height="27.21"/><circle class="cls-16" cx="97.89" cy="259.31" r="3.95"/><polygon class="cls-17" points="121.12 291.29 118.42 291.29 118.42 268.77 107.48 257.83 107.48 232.29 110.18 232.29 110.18 256.71 121.12 267.65 121.12 291.29"/><circle class="cls-18" cx="119.77" cy="291.09" r="3.95"/><polygon class="cls-19" points="135.15 265.68 121.47 252 121.47 232.29 124.16 232.29 124.16 250.88 137.06 263.78 135.15 265.68"/><circle class="cls-20" cx="135.97" cy="264.59" r="3.95"/><rect class="cls-21" x="159.29" y="232.29" width="2.69" height="44.41"/><circle class="cls-21" cx="160.64" cy="276.51" r="3.95"/><rect class="cls-22" x="180.95" y="232.29" width="2.69" height="31.34"/><circle class="cls-22" cx="182.29" cy="263.43" r="3.95"/><rect class="cls-23" x="197.09" y="232.29" width="2.69" height="63.95"/><path class="cls-24" d="M202.39,296.05a3.95,3.95,0,1,1-3.95-3.95A4,4,0,0,1,202.39,296.05Z"/><rect class="cls-25" x="232.29" y="198.93" width="27.21" height="2.69"/><circle class="cls-26" cx="259.31" cy="200.28" r="3.95"/><polygon class="cls-27" points="257.83 190.68 232.29 190.68 232.29 187.99 256.71 187.99 267.65 177.05 291.29 177.05 291.29 179.74 268.77 179.74 257.83 190.68"/><circle class="cls-28" cx="291.09" cy="178.39" r="3.95"/><polygon class="cls-29" points="252 176.7 232.29 176.7 232.29 174 250.88 174 263.78 161.11 265.68 163.01 252 176.7"/><path class="cls-30" d="M261.8,159.4a4,4,0,1,1,0,5.59A4,4,0,0,1,261.8,159.4Z"/><rect class="cls-31" x="232.29" y="136.18" width="44.41" height="2.69"/><circle class="cls-32" cx="276.51" cy="137.52" r="3.95"/><rect class="cls-33" x="232.29" y="114.52" width="31.34" height="2.69"/><circle class="cls-34" cx="263.43" cy="115.87" r="3.95"/><rect class="cls-35" x="232.29" y="98.38" width="63.95" height="2.69"/><circle class="cls-36" cx="296.05" cy="99.72" r="3.95"/><rect class="cls-37" x="40.5" y="98.38" width="27.21" height="2.69"/><circle class="cls-38" cx="40.69" cy="99.72" r="3.95"/><polygon class="cls-39" points="32.35 122.95 8.71 122.95 8.71 120.26 31.23 120.26 42.17 109.32 67.71 109.32 67.71 112.01 43.29 112.01 32.35 122.95"/><circle class="cls-40" cx="8.91" cy="121.61" r="3.95"/><polygon class="cls-41" points="36.22 138.9 34.32 136.99 48 123.3 67.71 123.3 67.71 126 49.12 126 36.22 138.9"/><path class="cls-42" d="M38.2,140.6a4,4,0,1,1,0-5.59A4,4,0,0,1,38.2,140.6Z"/><rect class="cls-43" x="23.3" y="161.13" width="44.41" height="2.69"/><circle class="cls-44" cx="23.49" cy="162.48" r="3.95"/><rect class="cls-45" x="36.37" y="182.78" width="31.34" height="2.69"/><circle class="cls-46" cx="36.57" cy="184.13" r="3.95"/><rect class="cls-47" x="3.75" y="198.93" width="63.95" height="2.69"/><circle class="cls-47" cx="3.95" cy="200.28" r="3.95"/></g></g></svg>