<svg xmlns="http://www.w3.org/2000/svg" xmlns:xlink="http://www.w3.org/1999/xlink" viewBox="0 0 303.5 298.5"><defs><style>.cls-1{fill:url(#radial-gradient);}.cls-2{fill:url(#radial-gradient-2);}.cls-3{fill:url(#radial-gradient-3);}.cls-4{fill:url(#radial-gradient-4);}.cls-5{fill:url(#radial-gradient-5);}.cls-6{fill:url(#radial-gradient-6);}.cls-7{fill:url(#radial-gradient-7);}.cls-8{fill:url(#radial-gradient-8);}.cls-9{fill:url(#radial-gradient-9);}.cls-10{fill:url(#radial-gradient-10);}.cls-11{fill:url(#radial-gradient-11);}.cls-12,.cls-14{fill:none;stroke-linecap:round;stroke-linejoin:round;stroke-width:7px;}.cls-12{stroke:url(#linear-gradient);}.cls-13{fill:url(#linear-gradient-2);}.cls-14{stroke:url(#linear-gradient-3);}.cls-15{fill:url(#linear-gradient-4);}</style><radialGradient id="radial-gradient" cx="107.69" cy="203.48" fx="57.5095524358808" fy="159.74971538359773" r="99.25" gradientTransform="translate(23.25 22.61) scale(0.85 0.85)" gradientUnits="userSpaceOnUse"><stop offset="0" stop-color="#274a8c"/><stop offset="0.26" stop-color="#264888"/><stop offset="0.49" stop-color="#23427d"/><stop offset="0.72" stop-color="#1d386a"/><stop offset="0.95" stop-color="#162b50"/><stop offset="1" stop-color="#142749"/></radialGradient><radialGradient id="radial-gradient-2" cx="99.78" cy="77.3" fx="62.82370943374531" fy="43.91809386011755" r="116.4" gradientTransform="translate(23.25 22.61) scale(0.85 0.85)" gradientUnits="userSpaceOnUse"><stop offset="0" stop-color="#274a8c"/><stop offset="0.23" stop-color="#264887"/><stop offset="0.49" stop-color="#22407a"/><stop offset="0.76" stop-color="#1b3563"/><stop offset="1" stop-color="#142749"/></radialGradient><radialGradient id="radial-gradient-3" cx="143.87" cy="65.95" fx="136.79954527352388" r="27.01" gradientTransform="translate(23.25 22.61) scale(0.85 0.85)" gradientUnits="userSpaceOnUse"><stop offset="0" stop-color="#274a8c"/><stop offset="0.04" stop-color="#254787"/><stop offset="0.27" stop-color="#1e396c"/><stop offset="0.51" stop-color="#182f58"/><stop offset="0.75" stop-color="#15294d"/><stop offset="1" stop-color="#142749"/></radialGradient><radialGradient id="radial-gradient-4" cx="223.06" cy="145.37" fx="166.13320953413373" fy="84.13997828846342" r="142.08" gradientTransform="translate(23.25 22.61) scale(0.85 0.85)" gradientUnits="userSpaceOnUse"><stop offset="0" stop-color="#274a8c"/><stop offset="0.31" stop-color="#22417b"/><stop offset="0.92" stop-color="#162a4f"/><stop offset="1" stop-color="#142749"/></radialGradient><radialGradient id="radial-gradient-5" cx="310.18" cy="143.86" r="17.3" gradientTransform="translate(23.25 22.61) scale(0.85 0.85)" gradientUnits="userSpaceOnUse"><stop offset="0" stop-color="#ffc50d"/><stop offset="0.23" stop-color="#f8c00d"/><stop offset="0.56" stop-color="#e5b10c"/><stop offset="0.96" stop-color="#c6980a"/><stop offset="1" stop-color="#c2950a"/></radialGradient><radialGradient id="radial-gradient-6" cx="58.62" cy="183.41" r="9.57" gradientTransform="matrix(0.83, 0.19, -0.19, 0.83, 227.35, -39.58)" xlink:href="#radial-gradient-5"/><radialGradient id="radial-gradient-7" cx="-251.89" cy="480.07" r="9.57" gradientTransform="matrix(0.62, 0.58, -0.58, 0.62, 702.19, -25.16)" xlink:href="#radial-gradient-5"/><radialGradient id="radial-gradient-8" cx="-243.77" cy="513.46" r="12.41" gradientTransform="matrix(0.62, 0.58, -0.58, 0.62, 702.19, -25.16)" xlink:href="#radial-gradient-5"/><radialGradient id="radial-gradient-9" cx="-189.11" cy="261.73" r="9.16" gradientTransform="matrix(0.83, 0.19, -0.19, 0.83, 227.35, -39.58)" xlink:href="#radial-gradient-5"/><radialGradient id="radial-gradient-10" cx="-596.74" cy="834.89" r="9.16" gradientTransform="matrix(0.42, 0.74, -0.74, 0.42, 920.43, 215.83)" xlink:href="#radial-gradient-5"/><radialGradient id="radial-gradient-11" cx="194.89" cy="489" r="11.88" gradientTransform="matrix(0.85, -0.03, 0.03, 0.85, -130.31, -259.31)" xlink:href="#radial-gradient-5"/><linearGradient id="linear-gradient" x1="63.91" y1="20.51" x2="219.12" y2="175.73" gradientUnits="userSpaceOnUse"><stop offset="0" stop-color="#ffc50d"/><stop offset="0.58" stop-color="#fdc30d"/><stop offset="0.79" stop-color="#f6be0d"/><stop offset="0.94" stop-color="#ebb40c"/><stop offset="1" stop-color="#e3ae0c"/></linearGradient><linearGradient id="linear-gradient-2" x1="145.47" y1="-61.04" x2="300.68" y2="94.17" xlink:href="#linear-gradient"/><linearGradient id="linear-gradient-3" x1="3.64" y1="236.84" x2="292.21" y2="236.84" xlink:href="#linear-gradient"/><linearGradient id="linear-gradient-4" x1="3.64" y1="227.88" x2="292.21" y2="227.88" xlink:href="#linear-gradient"/></defs><title>DeptAsset 9</title><g id="Layer_2" data-name="Layer 2"><g id="Layer_1-2" data-name="Layer 1"><path class="cls-1" d="M122.24,142.21s3.89,8.94,6.42,11,2.52,9.4,19.25,5,11.46,15.82,9.4,17.65-30.72,16.51-25.67,32.55,14,29.57,14.67,34.62-5.39,17.59-25.22-2.24-17.53-42.12-37.93-49.45-17-42.37,4-43.21,19-10.89,30.48-9.06A5.29,5.29,0,0,1,122.24,142.21Z"/><path class="cls-2" d="M176.11,44.94S180.38,58.85,170,64.5s-20.32,5.66-23.84-3.36-33.62-2.6-37.44,11.77,4.89,11.76,13.45,13.14,10.09,13.75-17.73,24.45-49.66-8.71-44.62,8.1,9.25,20.32-7.18,15l-.34-.11a19.94,19.94,0,0,1-11.42-27.61c4.31-8.84,10.93-20.09,20-29.28C72,65.36,76.62,61.29,91,54s30.25-13.3,49.51-13.45A143.58,143.58,0,0,1,176.11,44.94Z"/><path class="cls-3" d="M142.64,70.61S148.9,81.77,155.09,81s4.51,8.63-9,6.57S130.18,77,133.39,72.45,141.19,69.16,142.64,70.61Z"/><path class="cls-4" d="M207.28,59.61s-9.93,9.64-4.43,19,15.43,20.77-5.35,14.51-32.24,4.74-31.17,21.7-1.53,26.74,14.51,27.35,32.71-9.32,33.47,14.21,5,24.15,6.26,30.72,3.83,20.94-5.19,31.33-.31,14.21,7.18,13.9,11.62-3.51,13.6-7.33,20-23.69,22.31-58.38-8.25-63.87-26.28-85S207.28,59.61,207.28,59.61Z"/><path class="cls-5" d="M303.5,132.84s-8.11,10.54-7.84,20-7.93-2.07-12-4-10-3.7-14.23-3c0,0,4.5-5.09,14.91-1.94,0,0,5.18,1.85,6.4,3.38a20.88,20.88,0,0,1,4.37-9.42A16.44,16.44,0,0,1,303.5,132.84Z"/><path class="cls-6" d="M251.15,119s-5.7,4.66-6.74,9.79-4-2.11-6-3.64-4.93-3.25-7.3-3.42c0,0,3.07-2.18,8.28.83,0,0,2.56,1.65,3,2.62A11.51,11.51,0,0,1,246,120.7,9.18,9.18,0,0,1,251.15,119Z"/><path class="cls-7" d="M278.74,126.73s-7.27,1.17-10.74,5.09-2.41-3.85-3.35-6.16-2.63-5.28-4.59-6.62c0,0,3.74-.34,6.74,4.88,0,0,1.39,2.7,1.3,3.78a11.54,11.54,0,0,1,5.33-2.13A9.08,9.08,0,0,1,278.74,126.73Z"/><path class="cls-8" d="M267.71,152.59s-9.42,1.52-13.93,6.6-3.13-5-4.34-8-3.41-6.85-5.95-8.58c0,0,4.85-.44,8.74,6.32,0,0,1.8,3.52,1.68,4.91a15.1,15.1,0,0,1,6.92-2.77A11.85,11.85,0,0,1,267.71,152.59Z"/><path class="cls-9" d="M30.88,136.23s-5.45,4.47-6.45,9.38-3.84-2-5.72-3.49-4.72-3.11-7-3.27c0,0,2.93-2.08,7.92.79,0,0,2.45,1.58,2.89,2.51a11.1,11.1,0,0,1,3.39-4.33A8.81,8.81,0,0,1,30.88,136.23Z"/><path class="cls-10" d="M64.29,129.81s-7-1-11.25,1.62-1.12-4.19-1.32-6.57-.91-5.57-2.33-7.35c0,0,3.52.75,4.79,6.36,0,0,.5,2.87.11,3.83a11.15,11.15,0,0,1,5.48-.45A8.72,8.72,0,0,1,64.29,129.81Z"/><path class="cls-11" d="M59.35,141.79s-5.34,7.4-5,13.89-5.48-1.25-8.33-2.47-6.94-2.32-9.83-1.76c0,0,3-3.59,10.18-1.65,0,0,3.6,1.16,4.47,2.18a14.33,14.33,0,0,1,2.79-6.55A11.34,11.34,0,0,1,59.35,141.79Z"/><path class="cls-12" d="M3.5,119.81a145.74,145.74,0,0,1,263-52.92"/><path class="cls-13" d="M285.07,104.83c-15.57-14.39-38-30.69-56.77-38.29l35.14-4.33,24.23-25.8C282.7,56.08,282.64,83.77,285.07,104.83Z"/><path class="cls-14" d="M288.71,178.69a145.75,145.75,0,0,1-263,52.92"/><path class="cls-15" d="M7.14,193.67c15.57,14.39,38,30.69,56.76,38.29l-35.13,4.33L4.54,262.09C9.5,242.42,9.56,214.73,7.14,193.67Z"/></g></g></svg>