<svg xmlns="http://www.w3.org/2000/svg" xmlns:xlink="http://www.w3.org/1999/xlink" viewBox="0 0 300 300"><defs><style>.cls-1{fill:url(#radial-gradient);}.cls-2{fill:url(#radial-gradient-2);}.cls-3{fill:url(#radial-gradient-3);}</style><radialGradient id="radial-gradient" cx="149.91" cy="150.09" fx="126.22664357285237" fy="131.76901138209502" r="29.94" gradientUnits="userSpaceOnUse"><stop offset="0" stop-color="#ffc50d"/><stop offset="0.57" stop-color="#fdc30d"/><stop offset="0.77" stop-color="#f6be0d"/><stop offset="0.92" stop-color="#ebb50c"/><stop offset="1" stop-color="#e0ac0c"/></radialGradient><radialGradient id="radial-gradient-2" cx="154.21" cy="145.64" r="18.13" gradientUnits="userSpaceOnUse"><stop offset="0" stop-color="#ffc50d"/><stop offset="0.33" stop-color="#efb80c"/><stop offset="0.98" stop-color="#c4960a"/><stop offset="1" stop-color="#c2950a"/></radialGradient><radialGradient id="radial-gradient-3" cx="150" cy="150" fx="36.24088164048436" fy="60.682277217338864" r="150" gradientUnits="userSpaceOnUse"><stop offset="0" stop-color="#274a8c"/><stop offset="0.49" stop-color="#26498a"/><stop offset="0.66" stop-color="#254583"/><stop offset="0.79" stop-color="#213f78"/><stop offset="0.89" stop-color="#1c3667"/><stop offset="0.97" stop-color="#162b51"/><stop offset="1" stop-color="#142749"/></radialGradient></defs><title>DeptAsset 11</title><g id="Layer_2" data-name="Layer 2"><g id="Layer_1-2" data-name="Layer 1"><path class="cls-1" d="M149.91,120.15a29.94,29.94,0,1,0,29.94,29.94,30.05,30.05,0,0,0-29.94-29.94Zm0,51.73a21.79,21.79,0,1,1,21.79-21.79,21.82,21.82,0,0,1-21.79,21.79Z"/><path class="cls-2" d="M149.91,137.34a4,4,0,0,0,0,8,4.62,4.62,0,0,1,4.6,4.59,4,4,0,0,0,8,0,12.49,12.49,0,0,0-12.6-12.6Z"/><path class="cls-3" d="M300,150.09c0-16-16.2-30.62-45.76-41.31-.89-.35-1.78-.53-2.49-.89A16.11,16.11,0,0,1,253,105.4c13.35-28.31,14.6-50.21,3.2-61.42-11.39-11.4-33.11-10.15-61.42,3.2a16.66,16.66,0,0,0-2.5,1.25c-.35-.89-.53-1.78-.89-2.5C180.71,16.38,166.11,0,149.91,0c-16,0-30.62,16.2-41.3,45.76-.36.89-.54,1.78-.89,2.49a15.76,15.76,0,0,1-2.5-1.25C76.91,33.65,55,32.4,43.8,43.8,32.4,55.19,33.65,76.91,47,105.22a17.66,17.66,0,0,0,1.25,2.5c-.89.35-1.78.53-2.49.89C16.2,119.11,0,133.71,0,149.91c0,16,16.2,30.62,45.76,41.31.89.35,1.78.53,2.49.89A16.11,16.11,0,0,1,47,194.6C33.65,222.91,32.4,244.81,43.8,256c5.16,5.17,12.46,7.84,21.72,7.84,10.86,0,24.39-3.74,39.7-10.86a17.66,17.66,0,0,0,2.5-1.25c.35.89.53,1.78.89,2.49,10.5,29.56,25.1,45.76,41.3,45.76,16,0,30.62-16.2,41.31-45.76.35-.89.53-1.78.89-2.49A16.11,16.11,0,0,1,194.6,253c15.31,7.3,28.84,11,39.7,10.86,9.08,0,16.56-2.5,21.72-7.84,11.4-11.39,10.15-33.11-3.2-61.42a16.11,16.11,0,0,0-1.25-2.49c.89-.36,1.78-.54,2.5-.89C283.8,180.71,300,166.11,300,150.09ZM198.69,55.91C212.76,49.14,225,45.76,234.3,45.76c6.41,0,11.58,1.6,15,5,8.19,8.19,6.23,26.53-5.17,50.39-.53,1.24-1.24,2.49-1.78,3.74a266.81,266.81,0,0,0-39.16-8,291,291,0,0,0-8-39.16,33.76,33.76,0,0,0,3.56-1.78Zm-1.78,94.18q0,9.89-.53,19.23c-4.27,4.63-8.72,9.43-13.35,13.88q-6.94,6.95-13.89,13.36-9.62.52-19.23.53-9.89,0-19.23-.53c-4.63-4.28-9.43-8.73-13.88-13.36q-6.94-6.93-13.36-13.88-.52-9.62-.53-19.23,0-9.89.53-19.23c4.28-4.63,8.73-9.44,13.36-13.89q6.93-6.94,13.88-13.35,9.62-.54,19.23-.53,9.89,0,19.23.53c4.63,4.27,9.44,8.72,13.89,13.35q6.94,6.94,13.35,13.89.54,9.34.53,19.23ZM190.15,110c-1.78-1.78-3.74-3.56-5.52-5.34,3.38.35,6.59.71,10,1.07.36,3.2.71,6.58,1.07,10-2-2.14-3.74-3.92-5.52-5.7ZM173.23,94c-5-4.46-10.14-8.91-15.31-13a300.14,300.14,0,0,1,28.31-18.7,275.22,275.22,0,0,1,7,33.3c-6.59-.71-13.18-1.25-20-1.6Zm-15.49-.54H142.43c2.5-2.13,5.17-4.27,7.66-6.23,2.49,2,5,4.1,7.65,6.23Zm-31,.54c-6.77.35-13.54.89-20,1.6a282.69,282.69,0,0,1,7-33.3A243.07,243.07,0,0,1,142.08,81c-5.17,4.09-10.15,8.54-15.31,13Zm-11.4,10.5c-1.78,1.78-3.74,3.56-5.52,5.34s-3.56,3.74-5.34,5.52c.36-3.38.71-6.59,1.07-10,3.2-.18,6.41-.53,9.79-.89ZM94,126.77c-4.46,5-8.91,10.14-13,15.31a300.14,300.14,0,0,1-18.7-28.31,275.22,275.22,0,0,1,33.3-7c-.71,6.59-1.25,13.18-1.6,20Zm-.72,15.66v15.31c-2.13-2.49-4.27-5.16-6.23-7.65,2.14-2.67,4.1-5.16,6.23-7.66Zm.72,30.8c.35,6.77.89,13.54,1.6,20a282.69,282.69,0,0,1-33.3-7A243.07,243.07,0,0,1,81,157.92c4.09,5.17,8.37,10.33,13,15.31Zm10.5,11.4c1.78,1.78,3.56,3.74,5.34,5.52s3.74,3.56,5.52,5.34l-10-1.07c-.18-3.2-.53-6.41-.89-9.79Zm22.26,21.54c5,4.45,10.14,8.9,15.31,13a298,298,0,0,1-28.31,18.69,274.64,274.64,0,0,1-7-33.29c6.59.53,13.18,1.25,20,1.6Zm15.49.54h15.31c-2.5,2.13-5.17,4.27-7.66,6.23-2.49-2-5-4.1-7.65-6.23Zm31-.54c6.77-.35,13.54-.89,20-1.6a289.94,289.94,0,0,1-7,33.29,241.66,241.66,0,0,1-28.31-18.69c5.17-4.27,10.15-8.55,15.31-13Zm11.4-10.68c1.78-1.78,3.74-3.56,5.52-5.34s3.56-3.74,5.34-5.52c-.36,3.38-.71,6.59-1.07,10-3.2.36-6.41.71-9.79.89ZM206,173.23c4.46-5,8.91-10.14,13-15.31a300.14,300.14,0,0,1,18.7,28.31,275.22,275.22,0,0,1-33.3,7c.71-6.41,1.25-13.18,1.6-20Zm.72-15.49V142.43c2.13,2.5,4.27,5.17,6.23,7.66-2.14,2.49-4.1,5.16-6.23,7.65Zm-.72-31c-.35-6.77-.89-13.54-1.6-20a290.57,290.57,0,0,1,33.3,7A243.07,243.07,0,0,1,219,142.08c-4.09-5-8.37-10.15-13-15.31ZM117.86,49.14c8.91-24.93,20.66-39.35,32.05-39.35S173.06,24,182,49.14a25,25,0,0,1,1.24,3.92A296.87,296.87,0,0,0,149.73,75a260.12,260.12,0,0,0-33.47-21.9,22.51,22.51,0,0,0,1.6-3.92ZM55.91,101.31c-11.4-24-13.18-42.38-5.17-50.39,3.38-3.38,8.37-5,15-5,9.26,0,21.54,3.39,35.61,10.15,1.24.54,2.49,1.25,3.73,1.78A267.25,267.25,0,0,0,97,97a293.09,293.09,0,0,0-39.17,8,37,37,0,0,1-2-3.73ZM49,182.14c-24.92-8.91-39.35-20.66-39.35-32S23.86,126.94,49,118a25,25,0,0,1,3.92-1.24,296.87,296.87,0,0,0,21.9,33.47,260.12,260.12,0,0,0-21.9,33.47,35.88,35.88,0,0,0-3.92-1.6Zm52.35,62c-24,11.4-42.38,13.18-50.39,5.17-8.19-8.19-6.23-26.53,5.16-50.39.54-1.24,1.25-2.49,1.78-3.74a267.22,267.22,0,0,0,39.17,8,292.61,292.61,0,0,0,8,39.16c-1.42.72-2.49,1.25-3.73,1.78ZM182.14,251c-8.91,24.92-20.66,39.35-32,39.35S126.94,276.14,118,251a25,25,0,0,1-1.24-3.92,296.87,296.87,0,0,0,33.47-21.9,260.12,260.12,0,0,0,33.47,21.9,22.51,22.51,0,0,0-1.6,3.92Zm62-52.17c11.4,24,13.18,42.38,5.17,50.39-8.19,8.19-26.53,6.23-50.39-5.17-1.24-.53-2.49-1.24-3.74-1.78a266.81,266.81,0,0,0,8-39.16,291,291,0,0,0,39.16-8c.54,1.25,1.25,2.5,1.78,3.74Zm-18.87-48.78a260.81,260.81,0,0,0,21.9-33.47c1.25.35,2.67.89,3.92,1.24,24.92,8.91,39.35,20.66,39.35,32.05S276.14,173.06,251,182a25,25,0,0,1-3.92,1.24,311.09,311.09,0,0,0-21.9-33.11Z"/></g></g></svg>