<svg xmlns="http://www.w3.org/2000/svg" xmlns:xlink="http://www.w3.org/1999/xlink" viewBox="0 0 300 299.3"><defs><style>.cls-1,.cls-2,.cls-3{fill-rule:evenodd;}.cls-1{fill:url(#radial-gradient);}.cls-2{fill:url(#radial-gradient-2);}.cls-3{fill:url(#radial-gradient-3);}</style><radialGradient id="radial-gradient" cx="147.33" cy="154.99" fx="175.05347912522834" fy="28.23424043895696" r="200.23" gradientUnits="userSpaceOnUse"><stop offset="0" stop-color="#ffc50d"/><stop offset="0.37" stop-color="#fbc20d"/><stop offset="0.7" stop-color="#f1b90d"/><stop offset="1" stop-color="#e0ac0c"/></radialGradient><radialGradient id="radial-gradient-2" cx="75.73" cy="75.35" fx="47.55000067873325" fy="3.3855838763001174" r="94.8" gradientUnits="userSpaceOnUse"><stop offset="0" stop-color="#274a8c"/><stop offset="0.37" stop-color="#26498a"/><stop offset="0.58" stop-color="#244582"/><stop offset="0.74" stop-color="#203d74"/><stop offset="0.88" stop-color="#1b3361"/><stop offset="1" stop-color="#142749"/></radialGradient><radialGradient id="radial-gradient-3" cx="225.73" cy="225.09" fx="175.71787960390873" fy="140.65776740515503" r="106.87" xlink:href="#radial-gradient-2"/></defs><title>DeptAsset 14</title><g id="Layer_2" data-name="Layer 2"><g id="Layer_1-2" data-name="Layer 1"><path class="cls-1" d="M288,59.56c0-12.67-7.56-17.42-17.77-27.45-8.79-8.8-15.13-17.77-26.92-17.77-9.85,0-15.13,6.68-20.23,11.79L24.43,224.42c-3,3-4.75,14.08-6,18.65-2.29,8.1-4.58,17.25-6.69,25.34C10,275.1,4.55,290.23,7.54,293.75c2.81,3.52,7.74,1.23,11.79.17,4.57-1.05,8.27-2.28,13-3.34,9-2.29,17.06-4.57,25.86-6.86,4-1.06,8.1-2.29,12.49-3.34,6.87-1.76,6.16-1.59,10.56-5.81L275.86,80.14C280.79,75,288,69.06,288,59.56m-44.69-34c7,0,11.79,7,18.65,14.07l7.92,7.92c5.28,5.28,6.69,5.28,6.69,12.14,0,5.63-4.75,8.8-7.74,11.79-2.64,2.64-7.22,7.74-9.86,9.68L221.32,43.9c1.76-2.64,7-7.39,9.68-10C234.34,30.35,237.33,25.6,243.31,25.6ZM76.69,263.48l-38-37.83L213.22,51.46l37.83,37.48ZM19.85,282.14c.36-4.58,11.79-42.94,12-47.16l35.36,35C60.5,271.05,25.84,281.78,19.85,282.14Z"/><path class="cls-2" d="M82.84,150.7l7.39-7c-3.87-6-4.92-3.52-8.09-9.32,1.94-2.82,17.07-17.42,21.47-21.82,2.11-1.94,6.16-4.93,6.16-8.27a5.79,5.79,0,0,0-5.64-5.63C99,98.62,80.21,122.2,73.34,127L58.92,112.34c2.81-4.22,20.76-19.35,20.76-22.7,0-3.87-2.47-6.33-6.34-6.33s-17.59,17.24-22,20.06c-6.51-4.4-4.58-4.4-7.39-7a29,29,0,0,1-3.7-3.17c-1.93-2.11-1.23-3-3.87-3.69.71-3,22.88-23.75,26-26.92,3.88-3.87,2.29-9.68-4.57-9.68-4,.35-24.46,24.46-29.74,28-2.28-1.59-1.23-1.76-3.34-3.52a18.54,18.54,0,0,1-3.87-3.52c-1.94-2.29-1.06-1.58-3.34-3.52a19.4,19.4,0,0,1-3.7-3.87l52.44-53,77.06,76.71,8.1-7.92C148.3,80,85.66,16.8,78.27,9.41,71.41,2.55,67.71-3.79,61.2,2.72L2.79,61.14C-4.43,68.18,4,71.52,9.47,77.5c3.17,3.7,4,3.52,7.22,7.39L57,125a25.7,25.7,0,0,1,3.69,3.87Z"/><path class="cls-3" d="M212,158.44,286.24,233l-52.6,52.79c-5.81-3.69-4.4-4.22-7.39-6.86a29.78,29.78,0,0,1-3.7-3.17c-1.94-2.11-1.23-3-3.87-3.69,1.41-5.63,27.62-24.46,27.62-31.5,0-5.1-5.63-7-9.32-3.69-4.75,4.57-23.4,24.28-26.57,26.21l-11.09-10.91c-1.58-1.23-2.81-2.11-3.34-4.22,2.11-3.17,12.67-11.08,12.67-14.43,0-3.16-2.64-6.33-5.63-6.33-4.4,0-12,10.73-15.66,13.19L172.93,226c3.52-5.28,28.33-26.4,28.33-30.27,0-3.52-2.11-6.33-5.63-6.33s-6.33,4.05-8.27,6.16c-4.57,4.57-19,19.7-21.82,21.46a24.05,24.05,0,0,1-6.33-5.63l-7.74,7.39c2.28,3.35,10,10.56,13.54,13.9l15.84,16.19c1.06,1.06,1.58,1.23,2.64,2.29l11.26,11.43c1.23,1.06,1.58,1.41,2.64,2.47l27.8,28.15c9.32,9.5,9,7.57,20.23-3.69l46.28-46.28c12.67-12.67,12.14-9-10.73-31.85l-50.68-50.67c-2.29-2.29-8.27-9.15-10.91-9.85Z"/></g></g></svg>