<svg xmlns="http://www.w3.org/2000/svg" xmlns:xlink="http://www.w3.org/1999/xlink" viewBox="0 0 300 276.9"><defs><style>.cls-1{fill:none;}.cls-2{fill:url(#linear-gradient);}.cls-3{fill:url(#radial-gradient);}.cls-4{fill:url(#linear-gradient-2);}.cls-5{fill:url(#radial-gradient-2);}</style><linearGradient id="linear-gradient" y1="138.45" x2="276.9" y2="138.45" gradientUnits="userSpaceOnUse"><stop offset="0" stop-color="#274a8c"/><stop offset="0.29" stop-color="#23427d"/><stop offset="0.83" stop-color="#182e56"/><stop offset="1" stop-color="#142749"/></linearGradient><radialGradient id="radial-gradient" cx="138.29" cy="138.45" fx="102.35884046831275" fy="100.58310165287942" r="87.82" gradientUnits="userSpaceOnUse"><stop offset="0" stop-color="#ffc50d"/><stop offset="0.47" stop-color="#fdc30d"/><stop offset="0.68" stop-color="#f6bd0d"/><stop offset="0.83" stop-color="#e9b30c"/><stop offset="0.95" stop-color="#d8a50b"/><stop offset="1" stop-color="#cf9e0b"/></radialGradient><linearGradient id="linear-gradient-2" x1="158.62" y1="75.81" x2="300" y2="75.81" xlink:href="#linear-gradient"/><radialGradient id="radial-gradient-2" cx="195.2" cy="48.69" fx="195.2013177156332" fy="48.6945190872857" r="78.61" xlink:href="#radial-gradient"/></defs><title>DeptAsset 12</title><g id="Layer_2" data-name="Layer 2"><g id="Layer_1-2" data-name="Layer 1"><path class="cls-1" d="M85.09,138.61a53.46,53.46,0,0,0,106.23,8.62h-4.39a37.42,37.42,0,0,1-37.42-37.41V86.23a48.26,48.26,0,0,0-10.9-1.14A53.45,53.45,0,0,0,85.09,138.61Z"/><path class="cls-1" d="M118.93,6V42l-2.28.49A95.8,95.8,0,0,0,86.23,55.15l-2,1.3L58.73,31.07,31.07,58.73,56.62,84.27l-1.47,2a95.8,95.8,0,0,0-12.69,30.42L42,118.93H6v39.2H42l.49,2.28a96,96,0,0,0,12.69,30.43l1.3,1.95L30.91,218.33,58.57,246l25.54-25.55,2,1.31a96,96,0,0,0,30.43,12.69l2.27.48v36H158v-36l2.28-.48a97.45,97.45,0,0,0,30.42-12.69l2-1.31L218.17,246l27.65-27.66-25.54-25.54,1.3-1.95a99.1,99.1,0,0,0,12.69-30.43l.49-2.28h36V144.47a35.79,35.79,0,0,1-14,2.76H197a59.53,59.53,0,1,1-58.9-68.16A60.37,60.37,0,0,1,149,80s3.26-58.08,8.63-64.42V6Z"/><path class="cls-2" d="M268.28,158.13H237.36a3,3,0,0,0-2.76,2.12v.16a99.1,99.1,0,0,1-12.69,30.43l-.16.16a2.91,2.91,0,0,0,.32,3.41l22,22a2.65,2.65,0,0,1,0,3.9L220.28,244a2.65,2.65,0,0,1-3.9,0l-22-22a2.53,2.53,0,0,0-3.41-.32l-.16.16a96,96,0,0,1-30.43,12.69h-.16a2.79,2.79,0,0,0-2.12,2.76v30.92a2.74,2.74,0,0,1-2.76,2.76H121.85a2.74,2.74,0,0,1-2.76-2.76V237.36A3,3,0,0,0,117,234.6h-.16a95.8,95.8,0,0,1-30.42-12.69l-.16-.16a2.92,2.92,0,0,0-3.42.32l-22,22a2.66,2.66,0,0,1-3.91,0L33.19,220.28a2.65,2.65,0,0,1,0-3.9l22-22a2.53,2.53,0,0,0,.33-3.41l-.17-.16a96.41,96.41,0,0,1-12.69-30.43v-.16a2.79,2.79,0,0,0-2.76-2.12H9a2.74,2.74,0,0,1-2.77-2.76V121.85A2.74,2.74,0,0,1,9,119.09H39.86A3,3,0,0,0,42.62,117v-.16A97.92,97.92,0,0,1,55.31,86.39l.17-.16a2.91,2.91,0,0,0-.33-3.42L33,60.68a2.65,2.65,0,0,1,0-3.9L56.78,33a2.65,2.65,0,0,1,3.9,0l22,22a2.52,2.52,0,0,0,3.41.32l.17-.16a95.8,95.8,0,0,1,30.42-12.69h.16a2.79,2.79,0,0,0,2.12-2.76V8.79A2.74,2.74,0,0,1,121.69,6h33.52A2.74,2.74,0,0,1,158,8.79h0a2.73,2.73,0,0,0,4.56,2.11l.32-.33A2.77,2.77,0,0,0,164,8.46V2.77A2.74,2.74,0,0,0,161.23,0H115.67a2.74,2.74,0,0,0-2.76,2.77V35a2.79,2.79,0,0,1-2.12,2.76,109.16,109.16,0,0,0-23.91,9.93,2.74,2.74,0,0,1-3.42-.49L60.68,24.4a2.65,2.65,0,0,0-3.9,0L24.4,56.78a2.65,2.65,0,0,0,0,3.9L47.34,83.62A2.74,2.74,0,0,1,47.83,87,101.78,101.78,0,0,0,37.91,111a2.79,2.79,0,0,1-2.77,2.12H2.77A2.74,2.74,0,0,0,0,115.84v45.55a2.74,2.74,0,0,0,2.77,2.76H35a2.79,2.79,0,0,1,2.76,2.12,109.16,109.16,0,0,0,9.93,23.91,2.74,2.74,0,0,1-.49,3.42L24.4,216.38a2.65,2.65,0,0,0,0,3.9l32.38,32.38a2.65,2.65,0,0,0,3.9,0l22.94-22.94a2.74,2.74,0,0,1,3.42-.49A101.78,101.78,0,0,0,111,239.15a2.79,2.79,0,0,1,2.12,2.77v32.21a2.74,2.74,0,0,0,2.77,2.77h45.55a2.74,2.74,0,0,0,2.76-2.77V241.92a2.8,2.8,0,0,1,2.12-2.77,108.64,108.64,0,0,0,23.91-9.92,2.74,2.74,0,0,1,3.42.49l22.94,22.94a2.65,2.65,0,0,0,3.9,0l32.22-32.22a2.65,2.65,0,0,0,0-3.9L229.72,193.6a2.74,2.74,0,0,1-.49-3.42,101.43,101.43,0,0,0,9.92-23.91,2.8,2.8,0,0,1,2.77-2.12h32.21a2.74,2.74,0,0,0,2.77-2.76V146.1a2.87,2.87,0,0,0-4.07-2.61.55.55,0,0,0-.32.17,2.88,2.88,0,0,0-1.63,2.6v9A2.57,2.57,0,0,1,268.28,158.13Z"/><path class="cls-3" d="M138.61,192a53.53,53.53,0,0,1,0-107,47.81,47.81,0,0,1,10.9,1.14V79.88a60.45,60.45,0,0,0-10.9-1,59.55,59.55,0,1,0,58.9,68.17h-6A53.68,53.68,0,0,1,138.61,192Z"/><path class="cls-4" d="M241.92,146.58H216.38a1.46,1.46,0,0,1-1.47-1.46V128.69a1.57,1.57,0,0,0-1.14-1.47A48.84,48.84,0,0,1,203.69,123a1.49,1.49,0,0,0-1.79.33l-11.55,11.55a1.4,1.4,0,0,1-2.12,0l-18.06-18.06a1.39,1.39,0,0,1,0-2.11l11.55-11.55a1.78,1.78,0,0,0,.33-1.79,49.47,49.47,0,0,1-4.23-10.09,1.56,1.56,0,0,0-1.46-1.14H160.09a1.46,1.46,0,0,1-1.47-1.46V63a1.46,1.46,0,0,1,1.47-1.46h16.43A1.56,1.56,0,0,0,178,60.36a49.24,49.24,0,0,1,4.23-10.09,1.48,1.48,0,0,0-.32-1.79L170.34,36.93a1.39,1.39,0,0,1,0-2.11l18-18.06a1.4,1.4,0,0,1,2.12,0l11.55,11.55a1.75,1.75,0,0,0,1.79.32,49.24,49.24,0,0,1,10.09-4.23,1.56,1.56,0,0,0,1.14-1.46V6.51A1.46,1.46,0,0,1,216.54,5h25.54a1.46,1.46,0,0,1,1.47,1.47V22.94a1.55,1.55,0,0,0,1.14,1.46,49.39,49.39,0,0,1,10.08,4.23,1.48,1.48,0,0,0,1.79-.32l11.55-11.55a1.4,1.4,0,0,1,2.12,0l18.06,18.06a1.39,1.39,0,0,1,0,2.11L276.74,48.48a1.78,1.78,0,0,0-.33,1.79,49.24,49.24,0,0,1,4.23,10.09,1.56,1.56,0,0,0,1.46,1.14h16.44A1.46,1.46,0,0,1,300,63V85.57A1.46,1.46,0,0,1,298.54,87h0a1.46,1.46,0,0,0-1.47,1.46h0A1.46,1.46,0,0,1,295.61,90H282.27a1.58,1.58,0,0,0-1.47,1.14,48.84,48.84,0,0,1-4.23,10.08,1.49,1.49,0,0,0,.33,1.79l11.55,11.55a1.4,1.4,0,0,1,0,2.12l-18.06,18.06a1.39,1.39,0,0,1-2.11,0l-11.56-11.55a1.77,1.77,0,0,0-1.79-.33,49.39,49.39,0,0,1-10.08,4.23,1.56,1.56,0,0,0-1.14,1.46V145A2,2,0,0,1,241.92,146.58Zm-19.52-6h13.5a1.46,1.46,0,0,0,1.46-1.46v-15a1.56,1.56,0,0,1,1.14-1.46l1.14-.33a47,47,0,0,0,14.81-6.18l1-.65a1.45,1.45,0,0,1,1.79.16l10.58,10.58a1.39,1.39,0,0,0,2.11,0l9.6-9.6a1.4,1.4,0,0,0,0-2.12L268.93,104a1.3,1.3,0,0,1-.17-1.79l.65-1a45.45,45.45,0,0,0,6.19-14.8l.32-1.14a1.57,1.57,0,0,1,1.47-1.14h15a1.46,1.46,0,0,0,1.47-1.46V69.14a1.46,1.46,0,0,0-1.47-1.46h-15a1.57,1.57,0,0,1-1.47-1.14l-.32-1.14a47,47,0,0,0-6.19-14.8l-.65-1a1.46,1.46,0,0,1,.17-1.79L279.5,37.26a1.4,1.4,0,0,0,0-2.12l-9.6-9.6a1.39,1.39,0,0,0-2.11,0L257.21,36.12a1.28,1.28,0,0,1-1.79.16l-1-.65a45.48,45.48,0,0,0-14.81-6.18l-1.14-.33a1.56,1.56,0,0,1-1.14-1.46V12.53a1.46,1.46,0,0,0-1.46-1.47H222.4a1.46,1.46,0,0,0-1.47,1.47v15A1.56,1.56,0,0,1,219.79,29l-1.13.32a47,47,0,0,0-14.81,6.19l-1,.65a1.46,1.46,0,0,1-1.79-.17L190.51,25.38a1.4,1.4,0,0,0-2.12,0L178.8,35a1.39,1.39,0,0,0,0,2.11l10.57,10.58a1.28,1.28,0,0,1,.16,1.79l-.65,1a45.48,45.48,0,0,0-6.18,14.81l-.32,1.14a1.58,1.58,0,0,1-1.47,1.14h-15A1.46,1.46,0,0,0,164.48,69v13.5A1.46,1.46,0,0,0,165.94,84h15a1.58,1.58,0,0,1,1.47,1.14l.32,1.14a47,47,0,0,0,6.18,14.8l.65,1a1.45,1.45,0,0,1-.16,1.79L178.8,114.37a1.4,1.4,0,0,0,0,2.12l9.59,9.59a1.38,1.38,0,0,0,2.12,0l10.57-10.57a1.29,1.29,0,0,1,1.79-.16l1,.65a45.48,45.48,0,0,0,14.81,6.18l1.13.33a1.56,1.56,0,0,1,1.14,1.46v15A1.5,1.5,0,0,0,222.4,140.56Z"/><path class="cls-5" d="M229.23,107.05a31.24,31.24,0,1,1,31.24-31.24A31.24,31.24,0,0,1,229.23,107.05Zm0-56.45a25.22,25.22,0,1,0,25.22,25.21A25.24,25.24,0,0,0,229.23,50.6Z"/></g></g></svg>