<svg xmlns="http://www.w3.org/2000/svg" xmlns:xlink="http://www.w3.org/1999/xlink" viewBox="0 0 300 274.42"><defs><style>.cls-1{fill:#152d4f;}.cls-2{fill:url(#radial-gradient);}.cls-3{fill:url(#radial-gradient-2);}.cls-4{fill:url(#radial-gradient-3);}</style><radialGradient id="radial-gradient" cx="150" cy="63.47" fx="53.86602815506936" fy="-1.0810646147507583" r="175.9" gradientUnits="userSpaceOnUse"><stop offset="0" stop-color="#ffc50d"/><stop offset="0.23" stop-color="#f8c00d"/><stop offset="0.56" stop-color="#e5b10c"/><stop offset="0.96" stop-color="#c6980a"/><stop offset="1" stop-color="#c2950a"/></radialGradient><radialGradient id="radial-gradient-2" cx="108.42" cy="78.15" fx="98.22487128446892" fy="71.30485343399263" r="18.65" xlink:href="#radial-gradient"/><radialGradient id="radial-gradient-3" cx="191.39" cy="78.15" fx="181.19958871132212" fy="71.30485343399263" r="18.65" xlink:href="#radial-gradient"/></defs><title>DeptAsset 4</title><g id="Layer_2" data-name="Layer 2"><g id="Layer_1-2" data-name="Layer 1"><path class="cls-1" d="M158.79,274.42H141.21A10.48,10.48,0,0,1,130.74,264V251.84a7.1,7.1,0,0,0-5.33-6.88,97.72,97.72,0,0,1-25.35-10.53,7.18,7.18,0,0,0-8.65,1.09l-8.59,8.59a10.47,10.47,0,0,1-14.8,0L55.59,231.67a10.47,10.47,0,0,1,0-14.8l8.58-8.58a7.1,7.1,0,0,0,1.09-8.64,97.9,97.9,0,0,1-10.52-25.36A7.11,7.11,0,0,0,47.86,169H35.75a10.49,10.49,0,0,1-10.47-10.47V149.7h2.19v8.79a8.29,8.29,0,0,0,8.28,8.28H47.86a9.3,9.3,0,0,1,9,7,95.56,95.56,0,0,0,10.29,24.79,9.3,9.3,0,0,1-1.43,11.31l-8.58,8.58a8.27,8.27,0,0,0,0,11.7l12.43,12.44a8.49,8.49,0,0,0,11.71,0L89.86,234a9.31,9.31,0,0,1,11.31-1.42A95.54,95.54,0,0,0,126,242.83a9.3,9.3,0,0,1,7,9V264a8.29,8.29,0,0,0,8.28,8.28h17.58a8.29,8.29,0,0,0,8.28-8.28V251.84a9.3,9.3,0,0,1,7-9,95.54,95.54,0,0,0,24.79-10.28A9.29,9.29,0,0,1,210.14,234l8.58,8.59a8.47,8.47,0,0,0,11.7,0l12.43-12.43a8.27,8.27,0,0,0,0-11.7l-8.59-8.59a9.3,9.3,0,0,1-1.43-11.31,95.36,95.36,0,0,0,10.29-24.78,9.3,9.3,0,0,1,9-7h12.11a8.29,8.29,0,0,0,8.28-8.28V149.7h2.19v8.79A10.49,10.49,0,0,1,264.25,169H252.14a7.11,7.11,0,0,0-6.89,5.33,97.9,97.9,0,0,1-10.52,25.36,7.11,7.11,0,0,0,1.09,8.64l8.59,8.59a10.47,10.47,0,0,1,0,14.8L232,244.11a10.48,10.48,0,0,1-14.8,0l-8.58-8.59a7.12,7.12,0,0,0-8.65-1.09A97.72,97.72,0,0,1,174.59,245a7.1,7.1,0,0,0-5.33,6.88V264A10.48,10.48,0,0,1,158.79,274.42Z"/><path class="cls-2" d="M150,125.84H26.38C38.68,25.15,131.54,16.76,131.54,16.76V1.1h36.92V16.76s92.86,8.39,105.16,109.08Z"/><path class="cls-1" d="M274.86,126.93H25.14l.15-1.23c11.58-94.76,95-108.59,105.15-109.91V0h39.12V15.79c10.12,1.32,93.57,15.15,105.15,109.91ZM27.62,124.74H272.38c-12.66-97.52-103.1-106.81-104-106.89l-1-.09V2.19H132.64V17.76l-1,.09C130.72,17.93,40.27,27.27,27.62,124.74Z"/><path class="cls-1" d="M300,150.8H0l26.13-26.06H273.87ZM5.3,148.61H294.7L273,126.93H27Z"/><polygon class="cls-1" points="169.56 116.7 167.36 116.7 167.36 2.19 132.64 2.19 132.64 116.7 130.44 116.7 130.44 0 169.56 0 169.56 116.7"/><line class="cls-3" x1="108.42" y1="63.47" x2="108.42" y2="92.83"/><rect class="cls-1" x="107.32" y="63.47" width="2.19" height="29.37"/><line class="cls-4" x1="191.39" y1="63.47" x2="191.39" y2="92.83"/><rect class="cls-1" x="190.3" y="63.47" width="2.19" height="29.37"/><path class="cls-1" d="M150,205.43A55.79,55.79,0,0,1,94.27,149.7h2.19a53.54,53.54,0,0,0,107.08,0h2.19A55.79,55.79,0,0,1,150,205.43Z"/></g></g></svg>