<svg xmlns="http://www.w3.org/2000/svg" xmlns:xlink="http://www.w3.org/1999/xlink" viewBox="0 0 323.74 247.18"><defs><style>.cls-1,.cls-2{fill:none;stroke-miterlimit:10;stroke-width:9px;}.cls-1{stroke:#bc8806;}.cls-2{stroke:url(#linear-gradient);}.cls-3{fill:#996d00;}.cls-4{fill:url(#linear-gradient-2);}.cls-5{fill:url(#linear-gradient-3);}.cls-6{fill:url(#linear-gradient-4);}</style><linearGradient id="linear-gradient" x1="16.85" y1="102.7" x2="222.25" y2="102.7" gradientUnits="userSpaceOnUse"><stop offset="0.27" stop-color="#ffc50d"/><stop offset="0.56" stop-color="#f8bf0d"/><stop offset="0.96" stop-color="#e5b00c"/><stop offset="1" stop-color="#e3ae0c"/></linearGradient><linearGradient id="linear-gradient-2" x1="88.71" y1="101.49" x2="149.78" y2="101.49" xlink:href="#linear-gradient"/><linearGradient id="linear-gradient-3" x1="120.94" y1="133.64" x2="196.41" y2="225.91" gradientUnits="userSpaceOnUse"><stop offset="0" stop-color="#274a8c"/><stop offset="0.5" stop-color="#213f77"/><stop offset="1" stop-color="#1c3666"/></linearGradient><linearGradient id="linear-gradient-4" x1="241.64" y1="34.92" x2="317.1" y2="127.19" xlink:href="#linear-gradient-3"/></defs><title>DeptAsset 6</title><g id="Layer_2" data-name="Layer 2"><g id="Layer_1-2" data-name="Layer 1"><circle class="cls-1" cx="120.96" cy="103.38" r="98.2"/><circle class="cls-2" cx="119.55" cy="102.7" r="98.2"/><path class="cls-3" d="M114.31,169V152.55c-9.47-.16-19.27-3.1-25-7.18l3.92-10.94a43.47,43.47,0,0,0,23.51,7c11.59,0,19.43-6.7,19.43-16,0-9-6.37-14.53-18.45-19.43C101.08,99.49,90.8,92,90.8,77.77c0-13.55,9.63-23.84,24.65-26.29V35h10.13V50.83c9.79.33,16.49,2.94,21.22,5.71l-4.08,10.78a39.45,39.45,0,0,0-20.57-5.55c-12.58,0-17.31,7.51-17.31,14,0,8.49,6,12.74,20.25,18.61,16.81,6.86,25.3,15.35,25.3,29.88,0,12.9-9,25-25.79,27.76v17Z"/><path class="cls-4" d="M113.69,168.52V152c-9.47-.17-19.27-3.11-25-7.19l3.92-10.94a43.52,43.52,0,0,0,23.51,7c11.59,0,19.43-6.69,19.43-16,0-9-6.37-14.53-18.45-19.43-16.65-6.53-26.94-14-26.94-28.24,0-13.56,9.63-23.84,24.65-26.29V34.47H125V50.3c9.79.33,16.49,2.94,21.22,5.72L142.1,66.8a39.43,39.43,0,0,0-20.57-5.56c-12.57,0-17.31,7.51-17.31,14.05,0,8.49,6,12.73,20.25,18.61,16.81,6.86,25.31,15.35,25.31,29.88,0,12.9-9,25-25.8,27.76v17Z"/><path class="cls-5" d="M295.92,93.55c-10.34,28.87-25.52,56.11-45.56,79.34a206.82,206.82,0,0,1-73,54.13,227.1,227.1,0,0,1-43.17,14l-5.55,1.15c-1.84.38-3.68.79-5.56,1l-11.17,1.72-11.24,1.15-2.8.28L95,246.5l-5.63.3-5.63.29c-1.87.07-3.75,0-5.63,0-3.75,0-7.5.08-11.25,0-7.5-.36-15-.48-22.44-1.27-14.94-1.1-29.72-3.52-44.43-6.09,14.81,2,29.64,3.76,44.54,4.24,7.44.48,14.9.29,22.33.34,3.72-.09,7.43-.32,11.14-.47,1.86-.1,3.72-.14,5.57-.28l5.54-.52,5.54-.52,2.77-.27,2.75-.39,11-1.59,10.9-2.13c1.82-.32,3.61-.8,5.4-1.25l5.37-1.35a221,221,0,0,0,41.33-15.3,197.34,197.34,0,0,0,67.62-54.52c18.09-22.81,31.41-49.22,40.06-76.95Z"/><path class="cls-6" d="M300,40c-14.36,22-36.33,48.33-56.62,63.14l43.51-5.42,36.9,23.68C311.83,99.32,303.4,66.07,300,40Z"/></g></g></svg>