<svg xmlns="http://www.w3.org/2000/svg" xmlns:xlink="http://www.w3.org/1999/xlink" viewBox="0 0 300 229.94"><defs><style>.cls-1{fill:url(#radial-gradient);}.cls-2,.cls-3,.cls-5{fill:none;stroke-miterlimit:10;stroke-width:5px;}.cls-2{stroke:url(#linear-gradient);}.cls-3{stroke:url(#linear-gradient-2);}.cls-4{fill:url(#linear-gradient-3);}.cls-5{stroke:url(#linear-gradient-4);}.cls-6{fill:url(#linear-gradient-5);}</style><radialGradient id="radial-gradient" cx="150" cy="161.58" fx="98.56821163881355" fy="140.43506723693767" r="86.39" gradientUnits="userSpaceOnUse"><stop offset="0" stop-color="#ffc50d"/><stop offset="0.43" stop-color="#fdc30d"/><stop offset="0.68" stop-color="#f4bd0c"/><stop offset="0.89" stop-color="#e6b20c"/><stop offset="1" stop-color="#dba90b"/></radialGradient><linearGradient id="linear-gradient" x1="97.37" y1="10.14" x2="214.93" y2="161.52" gradientUnits="userSpaceOnUse"><stop offset="0" stop-color="#274a8c"/><stop offset="0.31" stop-color="#244480"/><stop offset="0.86" stop-color="#1b3562"/><stop offset="1" stop-color="#183059"/></linearGradient><linearGradient id="linear-gradient-2" x1="147.5" y1="113.77" x2="152.5" y2="113.77" xlink:href="#linear-gradient"/><linearGradient id="linear-gradient-3" x1="147.5" y1="20.29" x2="152.5" y2="20.29" xlink:href="#linear-gradient"/><linearGradient id="linear-gradient-4" x1="0" y1="204.78" x2="300" y2="204.78" xlink:href="#linear-gradient"/><linearGradient id="linear-gradient-5" x1="0" y1="204.78" x2="300" y2="204.78" xlink:href="#linear-gradient"/></defs><title>DeptAsset 10</title><g id="Layer_2" data-name="Layer 2"><g id="Layer_1-2" data-name="Layer 1"><path class="cls-1" d="M223.68,118.38c-16.61,45.65-45.58,79-73.68,79s-57.07-33.39-73.68-79v86.4H223.68Z"/><path class="cls-2" d="M62.26,39.35c0,80.37,44.87,158.07,87.74,158.07s87.74-77.7,87.74-158.07"/><line class="cls-3" x1="150" y1="6.01" x2="150" y2="221.53"/><path class="cls-4" d="M126,40.18a2.49,2.49,0,0,0,3.45-.76L150,7.15l20.55,32.27a2.5,2.5,0,0,0,4.22-2.69L152.11,1.16a2.5,2.5,0,0,0-4.22,0L125.23,36.73a2.54,2.54,0,0,0-.39,1.34A2.49,2.49,0,0,0,126,40.18Z"/><line class="cls-5" x1="293.99" y1="204.78" y2="204.78"/><path class="cls-6" d="M259.82,180.79a2.49,2.49,0,0,0,.76,3.45l32.27,20.54-32.27,20.55a2.5,2.5,0,0,0,2.69,4.22l35.57-22.66a2.49,2.49,0,0,0,0-4.21L263.27,180a2.54,2.54,0,0,0-1.34-.39A2.49,2.49,0,0,0,259.82,180.79Z"/></g></g></svg>