<svg xmlns="http://www.w3.org/2000/svg" xmlns:xlink="http://www.w3.org/1999/xlink" width="107" height="107" viewBox="0 0 107 107">
  <defs>
    <style>
      .cls-1 {
        fill: url(#radial-gradient);
      }

      .cls-2 {
        fill: none;
      }

      .cls-3 {
        fill: #fff;
      }
    </style>
    <radialGradient id="radial-gradient" cx="0.296" cy="0.273" r="0.996" gradientTransform="translate(0.3 0.631) rotate(-129.44)" gradientUnits="objectBoundingBox">
      <stop offset="0" stop-color="#284d8b"/>
      <stop offset="1" stop-color="#0f1e36"/>
    </radialGradient>
  </defs>
  <g id="Group_40" data-name="Group 40" transform="translate(-4712 -6499)">
    <circle id="Ellipse_41" data-name="Ellipse 41" class="cls-1" cx="53.5" cy="53.5" r="53.5" transform="translate(4712 6499)"/>
    <g id="campaign-24px" transform="translate(4732.238 6519.238)">
      <path id="Path_60" data-name="Path 60" class="cls-2" d="M0,0H67.523V67.523H0Z"/>
      <path id="Path_61" data-name="Path 61" class="cls-3" d="M47.016,23.694v5.627H58.27V23.694Zm-5.627,18.6c2.7,2,6.218,4.642,9,6.724,1.125-1.491,2.251-3.01,3.376-4.5-2.785-2.082-6.3-4.727-9-6.752C43.639,39.281,42.514,40.8,41.389,42.291ZM53.768,8.5C52.643,7.01,51.517,5.491,50.392,4c-2.785,2.082-6.3,4.727-9,6.752,1.125,1.491,2.251,3.01,3.376,4.5C47.466,13.228,50.983,10.612,53.768,8.5ZM7.627,18.067A5.643,5.643,0,0,0,2,23.694v5.627a5.643,5.643,0,0,0,5.627,5.627H10.44V46.2h5.627V34.948h2.813l14.067,8.44V9.627l-14.067,8.44Zm32.355,8.44a12.6,12.6,0,0,0-4.22-9.425V35.9A12.5,12.5,0,0,0,39.982,26.508Z" transform="translate(3.627 7.254)"/>
    </g>
  </g>
</svg>
