<svg xmlns="http://www.w3.org/2000/svg" xmlns:xlink="http://www.w3.org/1999/xlink" viewBox="0 0 300 278.63"><defs><style>.cls-1{fill:url(#linear-gradient);}.cls-2{fill:url(#linear-gradient-2);}.cls-3{fill:url(#linear-gradient-3);}.cls-4{fill:url(#linear-gradient-4);}.cls-5{fill:url(#linear-gradient-5);}.cls-6{fill:url(#linear-gradient-6);}.cls-7{fill:url(#linear-gradient-7);}</style><linearGradient id="linear-gradient" x1="43.39" y1="200.02" x2="116" y2="241.94" gradientUnits="userSpaceOnUse"><stop offset="0" stop-color="#ffc50d"/><stop offset="0.3" stop-color="#f8c00d"/><stop offset="0.73" stop-color="#e5b10c"/><stop offset="1" stop-color="#d6a50c"/></linearGradient><linearGradient id="linear-gradient-2" x1="141.24" y1="225.35" x2="158.61" y2="235.37" xlink:href="#linear-gradient"/><linearGradient id="linear-gradient-3" x1="169.35" y1="225.35" x2="186.72" y2="235.37" xlink:href="#linear-gradient"/><linearGradient id="linear-gradient-4" x1="198.34" y1="224.46" x2="215.71" y2="234.49" xlink:href="#linear-gradient"/><linearGradient id="linear-gradient-5" x1="226.45" y1="224.46" x2="243.82" y2="234.49" xlink:href="#linear-gradient"/><linearGradient id="linear-gradient-6" x1="254.56" y1="224.46" x2="271.93" y2="234.49" xlink:href="#linear-gradient"/><linearGradient id="linear-gradient-7" x1="-17.76" y1="50.73" x2="336.69" y2="295.66" gradientUnits="userSpaceOnUse"><stop offset="0.4" stop-color="#274a8c"/><stop offset="0.45" stop-color="#23437f"/><stop offset="0.57" stop-color="#1d3767"/><stop offset="0.69" stop-color="#182e56"/><stop offset="0.83" stop-color="#15294c"/><stop offset="1" stop-color="#142749"/></linearGradient></defs><title>DeptAsset 2</title><g id="Layer_2" data-name="Layer 2"><g id="Layer_1-2" data-name="Layer 1"><path class="cls-1" d="M35.52,216.39h88.36a2.69,2.69,0,0,1,2.7,2.69v3.81a2.69,2.69,0,0,1-2.7,2.69H35.52a2.69,2.69,0,0,1-2.7-2.69v-3.81A2.65,2.65,0,0,1,35.52,216.39Z"/><path class="cls-2" d="M148,216.27h3.81a2.68,2.68,0,0,1,2.69,2.69v22.78a2.69,2.69,0,0,1-2.69,2.7H148a2.69,2.69,0,0,1-2.69-2.7V219A2.72,2.72,0,0,1,148,216.27Z"/><path class="cls-3" d="M176.12,216.27h3.81a2.68,2.68,0,0,1,2.69,2.69v22.78a2.69,2.69,0,0,1-2.69,2.7h-3.81a2.68,2.68,0,0,1-2.69-2.7V219A2.71,2.71,0,0,1,176.12,216.27Z"/><path class="cls-4" d="M205.11,215.38h3.81a2.69,2.69,0,0,1,2.7,2.7v22.78a2.69,2.69,0,0,1-2.7,2.69h-3.81a2.68,2.68,0,0,1-2.69-2.69V218.08A2.73,2.73,0,0,1,205.11,215.38Z"/><path class="cls-5" d="M233.22,215.38H237a2.69,2.69,0,0,1,2.69,2.7v22.78a2.68,2.68,0,0,1-2.69,2.69h-3.81a2.68,2.68,0,0,1-2.69-2.69V218.08A2.73,2.73,0,0,1,233.22,215.38Z"/><path class="cls-6" d="M261.33,215.38h3.81a2.69,2.69,0,0,1,2.69,2.7v22.78a2.68,2.68,0,0,1-2.69,2.69h-3.81a2.68,2.68,0,0,1-2.69-2.69V218.08A2.73,2.73,0,0,1,261.33,215.38Z"/><path class="cls-7" d="M295.94,271.72V137.32a2.68,2.68,0,0,0-3.86-2.4l-58.5,29.22a2.69,2.69,0,0,1-3.87-2.22L220.87,2.52A2.65,2.65,0,0,0,218.17,0H177.06a2.74,2.74,0,0,0-2.69,2.52L165.18,150a2.74,2.74,0,0,1-1.47,2.23l-24,12a2.65,2.65,0,0,1-3.86-2.17L127.17,44.62a2.69,2.69,0,0,0-2.69-2.46h-41a2.64,2.64,0,0,0-2.64,2.46L71.66,150.09a2.65,2.65,0,0,1-1.47,2.17l-63,31.44a2.77,2.77,0,0,0-1.46,2.4V269a2.69,2.69,0,0,1-2.7,2.7H3a2.63,2.63,0,0,0-2.57,2L.1,275.35a2.61,2.61,0,0,0,2.57,3.28H297a2.62,2.62,0,0,0,2.57-2.05l.35-1.58a2.65,2.65,0,0,0-2.57-3.28ZM185.73,9.14h23.78a2.73,2.73,0,0,1,2.69,2.51l.23,4.22a2.68,2.68,0,0,1-2.69,2.81h-24.3a2.73,2.73,0,0,1-2.69-2.87l.29-4.22A2.73,2.73,0,0,1,185.73,9.14Zm-1.17,18.73h26a2.73,2.73,0,0,1,2.69,2.52l.24,4.22a2.68,2.68,0,0,1-2.69,2.81H184.27a2.74,2.74,0,0,1-2.7-2.87l.3-4.22A2.73,2.73,0,0,1,184.56,27.87Zm-1.17,18.74h28.23a2.74,2.74,0,0,1,2.69,2.52l6.62,119.58a2.69,2.69,0,0,1-1.47,2.52l-13.35,6.67a2.68,2.68,0,0,1-3.86-2.4V137.32a2.68,2.68,0,0,0-3.87-2.4l-19.62,9.78a2.69,2.69,0,0,1-3.86-2.58l5.8-93.05A2.72,2.72,0,0,1,183.39,46.61ZM91.92,51.3H116a2.68,2.68,0,0,1,2.69,2.46L119,58a2.68,2.68,0,0,1-2.69,2.87H91.51a2.63,2.63,0,0,1-2.64-2.92l.36-4.22A2.66,2.66,0,0,1,91.92,51.3ZM90.28,70h27.11a2.69,2.69,0,0,1,2.7,2.46l.29,4.21a2.68,2.68,0,0,1-2.69,2.87H89.93a2.64,2.64,0,0,1-2.64-2.93l.35-4.21A2.58,2.58,0,0,1,90.28,70ZM88.64,88.78h30.1a2.68,2.68,0,0,1,2.69,2.46l5.74,77.41a2.76,2.76,0,0,1-1.46,2.58l-13.3,6.67a2.68,2.68,0,0,1-3.86-2.4V137.32a2.68,2.68,0,0,0-3.87-2.4l-19.26,9.66A2.67,2.67,0,0,1,81.55,142L86,91.24A2.71,2.71,0,0,1,88.64,88.78ZM33.83,271.72H17.55a2.69,2.69,0,0,1-2.7-2.7v-4.21a2.7,2.7,0,0,1,2.7-2.7H31.13a2.7,2.7,0,0,1,2.7,2.7v6.91Zm81.63,0H45.66A2.69,2.69,0,0,1,43,269V241.38a2.69,2.69,0,0,1,2.7-2.69h69.8a2.68,2.68,0,0,1,2.69,2.69V269A2.73,2.73,0,0,1,115.46,271.72Zm168.65,0H130a2.69,2.69,0,0,1-2.69-2.7v-4.21a2.69,2.69,0,0,1,2.69-2.7H284.11a2.7,2.7,0,0,1,2.7,2.7V269A2.73,2.73,0,0,1,284.11,271.72Zm2.7-18.74H130a2.69,2.69,0,0,1-2.69-2.7V232.19a2.68,2.68,0,0,0-2.69-2.69H36.46a2.68,2.68,0,0,0-2.69,2.69v18.09a2.69,2.69,0,0,1-2.69,2.7H17.55a2.69,2.69,0,0,1-2.7-2.7v-58.5a2.77,2.77,0,0,1,1.47-2.4L95.55,149.8a2.68,2.68,0,0,1,3.86,2.4v38.18a2.68,2.68,0,0,0,3.87,2.4l86-43a2.68,2.68,0,0,1,3.86,2.4v38.18a2.68,2.68,0,0,0,3.87,2.4l86-43a2.68,2.68,0,0,1,3.87,2.4V253Z"/></g></g></svg>