<svg xmlns="http://www.w3.org/2000/svg" xmlns:xlink="http://www.w3.org/1999/xlink" viewBox="0 0 300.71 301.07"><defs><style>.cls-1{fill:none;}.cls-2{fill:url(#linear-gradient);}.cls-3{fill:url(#linear-gradient-2);}.cls-4{fill:url(#linear-gradient-3);}.cls-5{fill:url(#linear-gradient-4);}.cls-6{fill:url(#linear-gradient-5);}.cls-7{fill:url(#linear-gradient-6);}.cls-8{clip-path:url(#clip-path);}.cls-9{fill:url(#linear-gradient-7);}.cls-10{fill:url(#linear-gradient-8);}</style><linearGradient id="linear-gradient" x1="224.24" y1="26.27" x2="243.62" y2="45.65" gradientUnits="userSpaceOnUse"><stop offset="0" stop-color="#274a8c"/><stop offset="0.25" stop-color="#244481"/><stop offset="0.68" stop-color="#1b3563"/><stop offset="1" stop-color="#142749"/></linearGradient><linearGradient id="linear-gradient-2" x1="192.26" y1="26.27" x2="213.11" y2="47.11" xlink:href="#linear-gradient"/><linearGradient id="linear-gradient-3" x1="160.1" y1="26.27" x2="184.85" y2="51.02" xlink:href="#linear-gradient"/><linearGradient id="linear-gradient-4" x1="75.58" y1="121.14" x2="119.71" y2="121.14" gradientUnits="userSpaceOnUse"><stop offset="0.27" stop-color="#ffc50d"/><stop offset="0.56" stop-color="#f8bf0d"/><stop offset="0.96" stop-color="#e5b00c"/><stop offset="1" stop-color="#e3ae0c"/></linearGradient><linearGradient id="linear-gradient-5" x1="124.9" y1="119.8" x2="150.63" y2="119.8" xlink:href="#linear-gradient-4"/><linearGradient id="linear-gradient-6" x1="155.63" y1="120.52" x2="199.94" y2="120.52" xlink:href="#linear-gradient-4"/><clipPath id="clip-path" transform="translate(0 -0.71)"><rect class="cls-1" width="300" height="302.5"/></clipPath><linearGradient id="linear-gradient-7" x1="208.3" y1="207.42" x2="299.23" y2="307.28" gradientUnits="userSpaceOnUse"><stop offset="0" stop-color="#274a8c"/><stop offset="0.07" stop-color="#254786"/><stop offset="0.69" stop-color="#19305a"/><stop offset="1" stop-color="#142749"/></linearGradient><linearGradient id="linear-gradient-8" x1="-50.92" y1="20.41" x2="442.86" y2="325.72" gradientUnits="userSpaceOnUse"><stop offset="0.37" stop-color="#274a8c"/><stop offset="0.42" stop-color="#254786"/><stop offset="0.8" stop-color="#19305a"/><stop offset="1" stop-color="#142749"/></linearGradient></defs><title>DeptAsset 5</title><g id="Layer_2" data-name="Layer 2"><g id="Layer_1-2" data-name="Layer 1"><rect class="cls-2" x="224.24" y="26.27" width="12.86" height="12.86"/><rect class="cls-3" x="192.26" y="26.27" width="12.86" height="12.86"/><rect class="cls-4" x="160.1" y="26.27" width="12.86" height="12.86"/><path class="cls-5" d="M75.58,124.36l44.13,19.83V135.8l-35.2-14.66,35.2-14.65v-8.4L75.58,116.68Z" transform="translate(0 -0.71)"/><path class="cls-6" d="M144.19,85.23,124.9,154.38h6.43l19.3-69.15Z" transform="translate(0 -0.71)"/><path class="cls-7" d="M199.94,116,155.63,97.38v8.4L191,120.61l-35.38,14.65v8.4l44.13-19.3V116Z" transform="translate(0 -0.71)"/><g class="cls-8"><path class="cls-9" d="M224.24,189.76a35.2,35.2,0,1,0,0,70.39c19.12,0,35.2-16.08,35.2-35.19a35.38,35.38,0,0,0-35.2-35.2Zm0,57.53A22.34,22.34,0,1,1,246.58,225c.17,12.15-10.19,22.33-22.34,22.33Z" transform="translate(0 -0.71)"/></g><g class="cls-8"><path class="cls-10" d="M292,207.09H280a71.82,71.82,0,0,0-3.58-8.58l8.58-8.58a8.4,8.4,0,0,0,0-11.79l-9.29-9.29V.71H0V269.8a6.1,6.1,0,0,0,6.43,6.44h160.1l10.18,10.18a8.41,8.41,0,0,0,11.8,0l8.57-8.58a61.26,61.26,0,0,0,8.58,3.58v12a8.39,8.39,0,0,0,8.4,8.4h19.83a8.4,8.4,0,0,0,8.4-8.4v-12a72.37,72.37,0,0,0,8.57-3.58l8.58,8.58a8.4,8.4,0,0,0,11.79,0l14.12-14.12a8.42,8.42,0,0,0,0-11.79l-8.58-8.57a62.48,62.48,0,0,0,3.58-8.58h12a8.38,8.38,0,0,0,8.39-8.4V215.13a8.89,8.89,0,0,0-8.75-8ZM12.86,13.4h249.8V53.78H12.86ZM162.78,260.51a8.86,8.86,0,0,0-1.79,2.68H12.15V66.65H261.94v95.59a8.21,8.21,0,0,0-3,2l-8.57,8.58a61.23,61.23,0,0,0-8.58-3.57v-12a8.39,8.39,0,0,0-8.4-8.4H213.52a8.39,8.39,0,0,0-8.4,8.4v12a71,71,0,0,0-8.57,3.57L188,164.2a8.42,8.42,0,0,0-11.79,0l-14.12,14.12a8.4,8.4,0,0,0,0,11.79l8.58,8.58a62.48,62.48,0,0,0-3.58,8.58h-12a8.39,8.39,0,0,0-8.4,8.39V235.5a8.4,8.4,0,0,0,8.4,8.4h12a74.09,74.09,0,0,0,3.58,8.57Zm124.53-29.84H272.13a50.36,50.36,0,0,1-10.37,25.2l10.72,10.72-7.5,7.5-10.72-10.72a48.1,48.1,0,0,1-25.2,10.36v15.19H218.34V273.73a50.23,50.23,0,0,1-25.19-10.36l-10.72,10.72-7.5-7.5,10.72-10.72a48.11,48.11,0,0,1-10.37-25.2H160.1V220h15.18a50.24,50.24,0,0,1,10.37-25.19L174.93,184l7.5-7.51,10.72,10.72a48.15,48.15,0,0,1,25.19-10.36V161.7h10.72v15.19a50.35,50.35,0,0,1,25.2,10.36L265,176.53l7.5,7.51-10.72,10.72A48.16,48.16,0,0,1,272.13,220h15.18Z" transform="translate(0 -0.71)"/></g></g></g></svg>