<svg xmlns="http://www.w3.org/2000/svg" xmlns:xlink="http://www.w3.org/1999/xlink" viewBox="0 0 300 225.3"><defs><style>.cls-1{fill:#ffc50d;}.cls-2{fill:url(#radial-gradient);}.cls-3{fill:url(#linear-gradient);}.cls-4{fill:url(#linear-gradient-2);}</style><radialGradient id="radial-gradient" cx="98.53" cy="135.49" fx="25.67264817324059" fy="67.72369143271267" r="122.18" gradientUnits="userSpaceOnUse"><stop offset="0" stop-color="#274a8c"/><stop offset="0.22" stop-color="#264787"/><stop offset="0.49" stop-color="#214078"/><stop offset="0.78" stop-color="#1b3360"/><stop offset="1" stop-color="#142749"/></radialGradient><linearGradient id="linear-gradient" x1="35.2" y1="21.81" x2="100.1" y2="105.37" gradientUnits="userSpaceOnUse"><stop offset="0" stop-color="#274a8c"/><stop offset="0.31" stop-color="#244480"/><stop offset="0.86" stop-color="#1b3562"/><stop offset="1" stop-color="#183059"/></linearGradient><linearGradient id="linear-gradient-2" x1="8.35" y1="42.66" x2="73.24" y2="126.22" xlink:href="#linear-gradient"/></defs><title>DeptAsset 13</title><g id="Layer_2" data-name="Layer 2"><g id="Layer_1-2" data-name="Layer 1"><path class="cls-1" d="M164.13,122.75l50.71,25.3s22.38,9.19,25.14,47.35l60,29.9s0-61.64-49.06-88.69S164.13,122.75,164.13,122.75Z"/><path class="cls-1" d="M160,111.17s4.9-11.18,10.89-11.59,3.13-11.73-2.6-9.13S160,111.17,160,111.17Z"/><path class="cls-1" d="M181.24,104s9.94-7.08,15.29-4.36,8.7-8.45,2.46-9.16S181.24,104,181.24,104Z"/><path class="cls-1" d="M180.53,78.39s11.44-8.16,17.6-5,10-9.74,2.83-10.55S180.53,78.39,180.53,78.39Z"/><path class="cls-2" d="M23.59,58.4,205.05,149a2.09,2.09,0,0,1-.46,3.91c-10.64,2.45-33,9.2-44.8,24.58-15.91,20.67-12.13,40.6-30.92,37.7C123.37,214.29,32,163.71,5,153.65-11.11,147.65,16.23,54.72,23.59,58.4ZM70.87,82,58,75.55V97.07h0a18.76,18.76,0,0,1,12.92,0h0Zm-25.4,32.88A18.95,18.95,0,1,0,64.41,95.94,18.94,18.94,0,0,0,45.47,114.88Z"/><line class="cls-1" x1="64.41" y1="3.28" x2="64.41" y2="128.92"/><path class="cls-3" d="M64.41,118.84a3.28,3.28,0,0,1-3.28-3.28V3.28a3.28,3.28,0,0,1,6.56,0V115.56A3.28,3.28,0,0,1,64.41,118.84Z"/><path class="cls-4" d="M50.35,114.86a14.07,14.07,0,1,0,14.06-14.07A14.07,14.07,0,0,0,50.35,114.86Z"/></g></g></svg>